<?xml version="1.0" encoding="UTF-8"?><svg id="Layer_1" xmlns="http://www.w3.org/2000/svg" xmlns:xlink="http://www.w3.org/1999/xlink" viewBox="0 0 90 150"><defs><clipPath id="clippath"><path d="M0,124.94c32.17,11.32,58.55,11.66,90,0V20.51H0v104.43Z" fill="none"/></clipPath><radialGradient id="radial-gradient" cx="45" cy="20.51" fx="45" fy="20.51" r="113.3" gradientUnits="userSpaceOnUse"><stop offset="0" stop-color="#3e3e48"/><stop offset=".34" stop-color="#393842"/><stop offset=".76" stop-color="#2c2a32"/><stop offset="1" stop-color="#222027"/></radialGradient><radialGradient id="radial-gradient-2" cx="12.56" cy="51.75" fx="12.56" fy="51.75" r="7.62" gradientUnits="userSpaceOnUse"><stop offset="0" stop-color="#1a3c68"/><stop offset=".44" stop-color="#183662"/><stop offset="1" stop-color="#142853"/></radialGradient><linearGradient id="linear-gradient" x1="45" y1="63.5" x2="45" y2="86.5" gradientUnits="userSpaceOnUse"><stop offset="0" stop-color="#e8b421"/><stop offset=".41" stop-color="#e6b223"/><stop offset=".63" stop-color="#e0ab2b"/><stop offset=".81" stop-color="#d69f39"/><stop offset=".97" stop-color="#c88f4c"/><stop offset="1" stop-color="#c58c51"/></linearGradient></defs><g id="Screen_main"><rect id="Background" x="0" y="0" width="90" height="150" fill="#101010"/><rect id="Background-2" x="0" y="120.2" width="90" height="30"/><g id="Gray_BG_clipped"><g clip-path="url(#clippath)"><circle cx="45" cy="20.51" r="113.3" fill="url(#radial-gradient)"/></g></g><g id="Header_group"><path d="M8.52,41.85h-.59v-1.3H3.33v-3.75h.59v3.23h1.44v-3.23h.59v3.23h1.44v-3.23h.6v3.23h.52v1.83Z" fill="#d4def0"/><path d="M12.11,38.67c0,.31-.04.59-.11.83-.07.24-.18.45-.31.61-.14.17-.3.29-.49.38-.19.09-.41.13-.65.13-.22,0-.43-.04-.62-.13-.19-.09-.35-.21-.49-.38-.14-.17-.25-.37-.32-.61-.08-.24-.12-.52-.12-.83s.04-.58.11-.83c.07-.24.18-.44.31-.61.13-.17.3-.29.49-.38.19-.08.41-.13.65-.13.22,0,.43.04.62.13.19.09.35.21.49.38.14.17.25.37.32.61.08.24.12.52.12.83ZM9.6,38.67c0,.48.07.83.22,1.07.15.24.39.36.73.36s.58-.12.72-.36c.15-.24.22-.6.22-1.07s-.07-.83-.22-1.07c-.15-.24-.39-.35-.73-.35s-.58.12-.72.35c-.15.24-.22.59-.22,1.07Z" fill="#d4def0"/><path d="M12.86,38.3c0-.41.03-.78.08-1.1.05-.32.14-.6.25-.83.11-.23.26-.42.43-.56.18-.14.39-.24.63-.3.27-.06.54-.12.8-.18.26-.06.51-.11.73-.15l.11.55c-.11.02-.23.04-.36.06s-.27.05-.4.08c-.14.03-.27.05-.4.08-.13.03-.24.05-.33.08-.13.03-.26.09-.37.16-.11.08-.2.18-.28.31-.08.13-.14.29-.18.48-.04.19-.07.41-.08.67h.04c.04-.07.09-.13.16-.2s.15-.13.24-.19c.09-.06.2-.1.31-.14s.24-.05.38-.05c.22,0,.4.04.57.12.16.08.3.2.41.35.11.15.19.33.25.53.05.21.08.43.08.68,0,.31-.04.59-.11.82-.07.23-.18.43-.31.59-.14.16-.3.28-.49.35-.19.08-.4.12-.62.12s-.44-.05-.63-.15c-.19-.1-.35-.25-.48-.45-.13-.2-.24-.44-.31-.73-.07-.29-.11-.62-.11-.99ZM14.43,40.1c.13,0,.25-.02.36-.07.11-.04.2-.12.27-.22s.13-.23.18-.39c.04-.16.06-.36.06-.6,0-.19-.01-.36-.04-.52-.03-.15-.07-.28-.14-.39-.06-.11-.14-.19-.24-.25-.1-.06-.22-.09-.36-.09-.13,0-.26.03-.37.08s-.22.12-.31.2-.17.16-.23.24c-.06.08-.11.15-.14.21,0,.23.01.45.04.66.03.21.08.4.15.57.07.17.17.3.29.4.12.1.28.15.48.15Z" fill="#d4def0"/><path d="M19.22,38.34c.13,0,.25-.01.36-.03.11-.02.2-.05.28-.1.08-.04.14-.1.18-.18.04-.07.06-.16.06-.26,0-.18-.06-.31-.19-.4-.12-.09-.31-.13-.54-.13-.15,0-.3.02-.44.06s-.29.1-.46.18l-.21-.5c.09-.05.17-.08.26-.12.08-.03.17-.06.26-.08.09-.02.18-.04.28-.05.1-.01.2-.02.32-.02.19,0,.36.02.52.06.16.04.29.11.41.19s.2.19.27.31c.06.12.09.27.09.43,0,.11-.02.21-.05.3-.03.09-.07.17-.13.23-.06.07-.12.12-.2.17-.08.05-.16.09-.25.12v.04c.1.03.19.07.28.12.09.05.17.11.24.19.07.08.12.16.16.27s.06.22.06.37c0,.15-.03.3-.09.43-.06.13-.15.25-.26.35-.12.1-.27.17-.45.23-.18.06-.39.08-.64.08s-.45-.02-.64-.06c-.19-.04-.35-.1-.47-.18v-.57c.07.04.14.07.23.11.08.04.17.07.27.09.09.03.19.05.3.07.11.02.21.03.32.03.12,0,.23-.01.34-.03s.19-.05.27-.1.14-.11.18-.19c.04-.08.07-.18.07-.29,0-.21-.07-.37-.22-.48-.15-.1-.37-.16-.67-.16h-.42v-.52h.32Z" fill="#d4def0"/><path d="M23.68,40.55l-.12-.52h-.03c-.07.1-.14.19-.22.26-.07.07-.15.14-.23.18-.08.05-.18.08-.28.11-.1.02-.23.03-.36.03-.15,0-.29-.02-.41-.07-.13-.04-.24-.11-.33-.21-.09-.09-.16-.21-.22-.35-.05-.14-.08-.31-.08-.5,0-.37.13-.66.38-.86.25-.2.63-.31,1.15-.33l.6-.02v-.24c0-.15-.02-.28-.05-.38-.03-.1-.08-.19-.14-.25-.06-.06-.13-.11-.22-.14s-.19-.04-.3-.04c-.18,0-.35.03-.5.08-.16.05-.31.12-.45.2l-.21-.47c.16-.09.34-.17.54-.23s.41-.1.62-.1.41.02.58.07c.16.05.3.12.4.22.11.1.18.23.24.39s.08.35.08.57v2.57h-.43ZM22.59,40.12c.13,0,.26-.02.37-.06.11-.04.21-.11.29-.2.08-.09.15-.2.19-.33.05-.13.07-.29.07-.47v-.34l-.47.02c-.2,0-.36.03-.49.07-.13.04-.24.09-.32.15-.08.06-.14.14-.17.24-.03.09-.05.2-.05.31,0,.21.05.36.16.46s.24.15.42.15Z" fill="#d4def0"/><path d="M26.82,40.62c-.13,0-.24-.01-.35-.04s-.2-.07-.28-.12c-.08-.05-.16-.11-.22-.17-.06-.07-.12-.14-.17-.21h-.04c0,.08.01.15.02.22,0,.06,0,.12.01.18,0,.06,0,.11,0,.15v1.6h-.59v-5.43h.48l.08.51h.03c.05-.08.11-.15.17-.22.06-.07.14-.13.22-.18.08-.05.18-.09.28-.12.1-.03.22-.05.35-.05.2,0,.39.04.56.12s.31.2.43.37c.12.16.21.37.28.61.06.24.1.52.1.84s-.03.6-.1.85c-.07.24-.16.45-.28.61s-.26.29-.43.37c-.17.08-.35.12-.56.12ZM26.71,37.25c-.17,0-.31.03-.42.08-.11.05-.21.13-.28.24-.07.11-.12.24-.16.4s-.05.35-.06.56v.14c0,.23.01.43.04.61.03.18.08.33.15.45.07.12.17.21.28.28.12.06.26.09.44.09.29,0,.51-.12.65-.37s.21-.6.21-1.07-.07-.83-.21-1.06-.36-.35-.65-.35Z" fill="#d4def0"/><path d="M30.53,40.62c-.24,0-.46-.04-.66-.13-.2-.08-.37-.21-.51-.37-.14-.16-.25-.36-.33-.6-.08-.24-.12-.51-.12-.82s.04-.59.11-.83.17-.45.3-.62c.13-.17.29-.3.47-.39s.38-.13.6-.13.41.04.58.12c.17.08.32.2.44.34.12.15.21.32.28.53.06.21.1.43.1.69v.39h-2.26c.01.44.1.76.27.97s.41.31.74.31c.11,0,.21,0,.31-.02s.19-.03.27-.05c.09-.02.17-.05.26-.08.08-.03.17-.07.25-.11v.55c-.09.04-.17.08-.26.11-.08.03-.17.06-.26.08-.09.02-.18.04-.27.04-.09,0-.2.01-.31.01ZM30.39,37.25c-.25,0-.44.09-.59.27s-.23.44-.25.78h1.6c0-.15-.01-.3-.04-.43-.03-.13-.08-.24-.14-.33s-.14-.16-.24-.21-.21-.08-.35-.08Z" fill="#d4def0"/><path d="M34.06,40.62c-.22,0-.43-.04-.62-.11-.19-.07-.36-.19-.5-.34-.14-.16-.25-.36-.33-.6-.08-.24-.12-.53-.12-.88s.04-.66.12-.91c.08-.25.2-.45.34-.61.14-.16.31-.27.51-.34.19-.07.4-.11.62-.11.17,0,.34.02.5.06s.3.09.41.14l-.18.53c-.05-.02-.11-.04-.17-.07-.06-.02-.12-.04-.19-.06-.07-.02-.13-.03-.19-.04-.06-.01-.12-.02-.18-.02-.3,0-.53.09-.69.26-.16.17-.25.45-.28.83h1.55v.53h-1.56c.02.42.11.72.27.91s.39.28.69.28c.18,0,.34-.02.48-.06.14-.04.27-.09.39-.15v.55c-.12.07-.24.12-.38.15s-.3.05-.49.05Z" fill="#d4def0"/><path d="M37.15,40.62c-.22,0-.43-.04-.62-.11-.19-.07-.36-.19-.5-.34-.14-.16-.25-.36-.33-.6-.08-.24-.12-.53-.12-.88s.04-.66.12-.91c.08-.25.2-.45.34-.61.14-.16.31-.27.51-.34.19-.07.4-.11.62-.11.17,0,.34.02.5.06s.3.09.41.14l-.18.53c-.05-.02-.11-.04-.17-.07-.06-.02-.12-.04-.19-.06-.07-.02-.13-.03-.19-.04-.06-.01-.12-.02-.18-.02-.34,0-.59.11-.75.34-.16.23-.23.58-.23,1.07s.08.83.24,1.05c.16.22.4.33.72.33.18,0,.34-.02.48-.06.14-.04.27-.09.39-.15v.55c-.12.07-.24.12-.38.15s-.3.05-.49.05Z" fill="#d4def0"/><path d="M41.12,37.32h-1.04v3.23h-.6v-3.23h-1.04v-.53h2.68v.53Z" fill="#d4def0"/><path d="M43.44,40.62c-.13,0-.24-.01-.35-.04s-.2-.07-.28-.12c-.08-.05-.16-.11-.22-.17-.06-.07-.12-.14-.17-.21h-.04c0,.08.01.15.02.22,0,.06,0,.12.01.18,0,.06,0,.11,0,.15v1.6h-.59v-5.43h.48l.08.51h.03c.05-.08.11-.15.17-.22.06-.07.14-.13.22-.18.08-.05.18-.09.28-.12.1-.03.22-.05.35-.05.2,0,.39.04.56.12s.31.2.43.37c.12.16.21.37.28.61.06.24.1.52.1.84s-.03.6-.1.85c-.07.24-.16.45-.28.61s-.26.29-.43.37c-.17.08-.35.12-.56.12ZM43.33,37.25c-.17,0-.31.03-.42.08-.11.05-.21.13-.28.24-.07.11-.12.24-.16.4s-.05.35-.06.56v.14c0,.23.01.43.04.61.03.18.08.33.15.45.07.12.17.21.28.28.12.06.26.09.44.09.29,0,.51-.12.65-.37s.21-.6.21-1.07-.07-.83-.21-1.06-.36-.35-.65-.35Z" fill="#d4def0"/><path d="M45.2,36.8h.62l.7,2.1c.03.09.06.19.09.29s.06.2.09.3.05.2.07.29.03.18.04.26h.02c0-.06.03-.13.05-.23s.05-.2.08-.31c.03-.11.06-.22.09-.33s.06-.2.08-.27l.65-2.09h.61l-1.42,4.24c-.06.18-.13.35-.2.5-.07.15-.15.27-.25.37s-.2.18-.33.24c-.13.06-.28.08-.45.08-.11,0-.21,0-.29-.02-.08-.01-.15-.03-.21-.04v-.5s.1.02.17.03c.07,0,.14.01.22.01.1,0,.19-.01.27-.04.08-.03.14-.06.2-.11s.11-.11.14-.18c.04-.07.08-.16.11-.25l.19-.55-1.36-3.79Z" fill="#d4def0"/><path d="M51.74,37.74c0,.24-.07.42-.2.56-.13.13-.32.22-.55.26v.02c.12.02.24.04.34.09s.2.1.27.17c.08.07.14.16.18.26.04.1.07.23.07.37,0,.15-.03.29-.08.43-.05.13-.13.25-.24.35-.11.1-.25.17-.42.23-.17.05-.38.08-.63.08h-1.48v-3.75h1.48c.18,0,.35.02.5.05s.29.08.4.16.2.17.26.29c.06.12.1.27.1.45ZM51.17,37.81c0-.18-.06-.3-.18-.37s-.29-.11-.53-.11h-.87v1.02h.77c.14,0,.25,0,.35-.03.1-.02.18-.05.25-.09s.12-.1.15-.16c.03-.07.05-.15.05-.26ZM51.27,39.42c0-.21-.07-.36-.21-.44-.14-.08-.35-.12-.63-.12h-.84v1.18h.85c.12,0,.23-.01.33-.03.1-.02.19-.05.26-.1.07-.05.13-.11.17-.19.04-.08.06-.18.06-.29Z" fill="#d4def0"/><path d="M54.81,40.55l-.12-.52h-.03c-.07.1-.14.19-.22.26-.07.07-.15.14-.24.18-.08.05-.18.08-.28.11-.1.02-.22.03-.36.03-.15,0-.29-.02-.41-.07-.13-.04-.24-.11-.33-.21-.09-.09-.17-.21-.22-.35-.05-.14-.08-.31-.08-.5,0-.37.13-.66.38-.86.25-.2.63-.31,1.15-.33l.6-.02v-.24c0-.15-.02-.28-.05-.38-.03-.1-.08-.19-.14-.25-.06-.06-.13-.11-.22-.14s-.19-.04-.3-.04c-.18,0-.35.03-.5.08-.16.05-.3.12-.45.2l-.21-.47c.16-.09.34-.17.54-.23.2-.06.41-.1.62-.1s.41.02.58.07c.16.05.3.12.4.22.11.1.18.23.24.39s.08.35.08.57v2.57h-.43ZM53.72,40.12c.13,0,.26-.02.37-.06.11-.04.21-.11.29-.2.08-.09.15-.2.19-.33.05-.13.07-.29.07-.47v-.34l-.47.02c-.2,0-.36.03-.49.07-.13.04-.24.09-.32.15-.08.06-.14.14-.17.24-.04.09-.05.2-.05.31,0,.21.05.36.16.46s.24.15.42.15Z" fill="#d4def0"/><path d="M58.44,37.32h-1.04v3.23h-.6v-3.23h-1.04v-.53h2.68v.53Z" fill="#d4def0"/><path d="M59.71,36.8v2.28l-.04.86,1.68-3.14h.76v3.75h-.56v-2.21l.04-.93-1.68,3.14h-.76v-3.75h.56Z" fill="#d4def0"/><path d="M65.57,40.55h-.59v-3.75h2.83v3.75h-.59v-3.23h-1.64v3.23Z" fill="#d4def0"/><path d="M71.87,38.67c0,.31-.04.59-.11.83-.07.24-.18.45-.31.61-.14.17-.3.29-.49.38s-.41.13-.65.13c-.22,0-.43-.04-.62-.13s-.35-.21-.49-.38c-.14-.17-.25-.37-.32-.61-.08-.24-.12-.52-.12-.83s.04-.58.11-.83c.07-.24.18-.44.31-.61.13-.17.3-.29.49-.38.19-.08.41-.13.65-.13.22,0,.43.04.62.13.19.09.35.21.49.38.14.17.25.37.32.61.08.24.12.52.12.83ZM69.36,38.67c0,.48.07.83.22,1.07.15.24.39.36.73.36s.58-.12.72-.36c.15-.24.22-.6.22-1.07s-.08-.83-.22-1.07c-.15-.24-.39-.35-.73-.35s-.58.12-.72.35c-.15.24-.22.59-.22,1.07Z" fill="#d4def0"/><path d="M72.18,35.78c0-.12.03-.21.09-.27.06-.05.13-.08.22-.08s.16.03.22.08c.06.06.09.14.09.27s-.03.21-.09.27c-.06.06-.14.09-.22.09s-.16-.03-.22-.09c-.06-.06-.09-.15-.09-.27ZM73.4,40.55h-.59v-3.75h.59v3.75ZM73.4,35.78c0-.12.03-.21.09-.27s.13-.08.22-.08c.04,0,.08,0,.12.02s.07.03.1.06c.03.03.05.06.07.11.02.04.03.1.03.16,0,.12-.03.21-.09.27s-.14.09-.22.09-.16-.03-.22-.09-.09-.15-.09-.27Z" fill="#d4def0"/><path d="M75.17,38.34c.13,0,.25-.01.36-.03.11-.02.2-.05.28-.1.08-.04.14-.1.18-.18.04-.07.06-.16.06-.26,0-.18-.06-.31-.19-.4-.12-.09-.31-.13-.54-.13-.15,0-.3.02-.44.06s-.29.1-.46.18l-.21-.5c.09-.05.17-.08.26-.12s.17-.06.26-.08c.09-.02.18-.04.28-.05.1-.01.21-.02.32-.02.19,0,.36.02.52.06s.29.11.41.19c.11.08.2.19.27.31.06.12.09.27.09.43,0,.11-.01.21-.04.3-.03.09-.07.17-.13.23-.06.07-.12.12-.2.17-.08.05-.16.09-.25.12v.04c.09.03.19.07.28.12s.17.11.24.19c.07.08.12.16.16.27s.06.22.06.37c0,.15-.03.3-.09.43-.06.13-.15.25-.26.35s-.27.17-.45.23c-.18.06-.39.08-.64.08s-.45-.02-.64-.06c-.19-.04-.35-.1-.47-.18v-.57c.07.04.14.07.22.11.08.04.17.07.27.09.09.03.2.05.3.07.11.02.21.03.32.03.12,0,.23-.01.34-.03s.19-.05.27-.1.14-.11.18-.19c.04-.08.07-.18.07-.29,0-.21-.07-.37-.22-.48-.15-.1-.37-.16-.67-.16h-.42v-.52h.32Z" fill="#d4def0"/><path d="M80.56,41.85h-.57v-1.3h-2.25v1.3h-.57v-1.83h.28c.14-.22.27-.45.37-.71.11-.25.2-.52.27-.8.07-.28.13-.56.17-.85s.06-.58.06-.87h1.75v3.23h.49v1.83ZM79.47,40.02v-2.75h-.63c-.02.23-.04.47-.08.72-.04.24-.09.49-.15.72-.06.24-.14.47-.23.69-.09.22-.19.43-.3.62h1.39Z" fill="#d4def0"/><path d="M83.18,36.8h.64l-1.35,1.8,1.48,1.95h-.67l-1.43-1.9v1.9h-.59v-3.75h.59v1.82l1.33-1.82Z" fill="#d4def0"/><path d="M84,36.8h.62l.7,2.1c.03.09.06.19.09.29.03.1.06.2.09.3s.05.2.07.29.03.18.04.26h.02c.01-.06.03-.13.05-.23s.05-.2.08-.31c.03-.11.06-.22.09-.33.03-.11.06-.2.08-.27l.65-2.09h.61l-1.42,4.24c-.06.18-.13.35-.2.5-.07.15-.15.27-.25.37-.09.1-.2.18-.33.24-.13.06-.28.08-.45.08-.11,0-.21,0-.29-.02-.08-.01-.15-.03-.21-.04v-.5s.1.02.17.03c.07,0,.14.01.22.01.1,0,.19-.01.27-.04.08-.03.14-.06.2-.11s.1-.11.15-.18c.04-.07.08-.16.11-.25l.19-.55-1.36-3.79Z" fill="#d4def0"/><path d="M7.4,31.49h-.74v-5.39h-2.55v5.39h-.74v-6.07h4.03v6.07Z" fill="#72e064"/><path d="M9.59,31.49h-.72v-4.56h.72v4.56Z" fill="#72e064"/><path d="M14.56,33.07h-.69v-1.58h-2.73v1.58h-.69v-2.22h.34c.17-.26.32-.55.45-.86s.24-.63.33-.97c.09-.34.16-.68.2-1.04.04-.35.07-.71.07-1.06h2.12v3.92h.6v2.22ZM13.23,30.85v-3.34h-.76c-.02.29-.05.58-.1.87-.05.3-.11.59-.19.88-.08.29-.17.57-.28.84s-.23.52-.37.75h1.69Z" fill="#72e064"/><path d="M16.13,26.93v1.89h2.16v-1.89h.72v4.56h-.72v-2.03h-2.16v2.03h-.72v-4.56h.72Z" fill="#72e064"/><path d="M22.11,31.57c-.29,0-.56-.05-.8-.15-.24-.1-.45-.25-.62-.45-.17-.2-.31-.44-.4-.73-.1-.29-.14-.62-.14-1s.04-.71.13-1.01c.09-.3.21-.55.37-.75.16-.21.35-.36.57-.47.22-.11.46-.16.73-.16s.5.05.71.15.39.24.53.42c.15.18.26.39.33.64.08.25.12.53.12.83v.47h-2.74c.01.53.12.93.32,1.18.2.25.5.38.9.38.13,0,.26,0,.37-.02.12-.01.23-.03.33-.06s.21-.06.31-.1c.1-.04.2-.09.31-.14v.67c-.11.05-.21.1-.31.14s-.21.07-.31.1c-.11.02-.22.04-.33.05s-.24.02-.37.02ZM21.93,27.48c-.3,0-.54.11-.71.32-.18.22-.28.53-.31.94h1.95c0-.19-.02-.36-.05-.52s-.09-.29-.17-.4c-.08-.11-.17-.2-.29-.26-.12-.06-.26-.09-.42-.09Z" fill="#72e064"/><path d="M26.39,31.57c-.27,0-.52-.04-.75-.13-.23-.09-.43-.23-.61-.42-.17-.19-.31-.43-.4-.73-.1-.29-.15-.65-.15-1.06s.05-.8.15-1.11c.1-.3.24-.55.41-.74.18-.19.38-.33.62-.41.23-.09.49-.13.76-.13.21,0,.41.02.6.07.2.05.36.1.49.17l-.21.64c-.06-.03-.13-.05-.2-.08s-.15-.05-.23-.07c-.08-.02-.16-.04-.23-.05-.08-.01-.15-.02-.22-.02-.41,0-.72.14-.91.42-.19.28-.29.71-.29,1.3s.1,1.01.29,1.28c.19.27.48.4.87.4.21,0,.41-.03.58-.08.17-.05.33-.11.47-.18v.67c-.14.08-.3.14-.46.18-.16.04-.36.06-.6.06Z" fill="#72e064"/><path d="M29.2,31.49h-.72v-4.56h.72v4.56Z" fill="#72e064"/><path d="M33.31,27.57h-1.26v3.92h-.72v-3.92h-1.26v-.64h3.25v.64Z" fill="#72e064"/><path d="M34.88,28.8h1.1c.56,0,.97.11,1.24.32.27.22.4.54.4.97,0,.21-.03.41-.09.58-.06.17-.16.32-.29.44-.13.12-.31.22-.52.28-.21.06-.46.1-.76.1h-1.8v-4.56h.72v1.87ZM34.88,29.44v1.43h1.03c.15,0,.28-.01.41-.04s.23-.06.32-.12.16-.13.21-.22c.05-.09.08-.2.08-.34s-.02-.25-.07-.34-.11-.16-.19-.22c-.09-.06-.19-.1-.32-.12-.13-.02-.27-.04-.44-.04h-1.01Z" fill="#72e064"/><path d="M41.63,28.8c.16,0,.31-.01.44-.04.13-.02.25-.06.34-.12.1-.05.17-.13.22-.21.05-.09.08-.2.08-.32,0-.21-.08-.37-.23-.48s-.37-.16-.66-.16c-.19,0-.37.03-.54.08-.17.05-.35.13-.55.22l-.25-.61c.11-.06.21-.1.31-.14.1-.04.21-.07.31-.1.11-.03.22-.05.34-.06.12-.01.25-.02.39-.02.23,0,.44.03.63.08.19.05.35.13.49.23.14.1.25.23.32.38.08.15.12.32.12.52,0,.14-.02.26-.06.37s-.09.2-.16.28-.15.15-.24.21-.2.1-.31.14v.05c.12.04.23.09.34.15.11.06.2.14.29.23s.15.2.2.32c.05.12.08.27.08.44,0,.19-.04.36-.1.52-.07.16-.18.3-.32.42s-.32.21-.54.28c-.22.07-.48.1-.78.1s-.55-.02-.78-.07-.42-.12-.58-.21v-.69c.08.04.17.09.27.13.1.04.21.08.32.11.12.03.24.06.36.08.13.02.26.03.39.03.15,0,.28-.01.41-.04.13-.02.24-.07.33-.12.09-.06.17-.13.22-.23.05-.1.08-.21.08-.35,0-.26-.09-.45-.26-.58-.18-.13-.45-.19-.81-.19h-.51v-.64h.38Z" fill="#72e064"/><path d="M47.04,31.49l-.15-.63h-.03c-.09.12-.17.23-.26.32-.09.09-.18.16-.29.22-.1.06-.22.1-.34.13-.13.03-.27.04-.44.04-.18,0-.35-.03-.5-.08-.15-.05-.29-.14-.4-.25-.11-.11-.2-.25-.26-.42-.06-.17-.1-.37-.1-.6,0-.45.15-.8.46-1.05.31-.24.77-.38,1.39-.4l.73-.03v-.29c0-.19-.02-.34-.06-.46-.04-.12-.09-.22-.17-.3s-.16-.13-.27-.16c-.11-.03-.23-.05-.37-.05-.22,0-.42.03-.61.1-.19.07-.37.15-.54.24l-.25-.57c.2-.11.41-.2.65-.28.24-.08.49-.12.76-.12s.5.03.7.08.36.15.49.27.22.28.29.47c.06.19.1.42.1.69v3.12h-.52ZM45.72,30.96c.16,0,.31-.03.45-.08.14-.05.26-.13.36-.24s.18-.24.24-.4c.06-.16.09-.35.09-.57v-.41l-.57.03c-.24.01-.44.04-.6.08s-.29.11-.39.18c-.1.08-.17.17-.21.29-.04.11-.06.24-.06.38,0,.25.06.44.19.56s.3.18.5.18Z" fill="#72e064"/><path d="M50.56,31.57c-.27,0-.52-.04-.75-.13-.23-.09-.43-.23-.61-.42s-.31-.43-.4-.73c-.1-.29-.15-.65-.15-1.06s.05-.8.15-1.11c.1-.3.24-.55.41-.74.18-.19.38-.33.62-.41.23-.09.49-.13.76-.13.21,0,.41.02.6.07.2.05.36.1.49.17l-.21.64c-.06-.03-.13-.05-.2-.08-.07-.03-.15-.05-.23-.07-.08-.02-.16-.04-.23-.05-.08-.01-.15-.02-.22-.02-.41,0-.72.14-.91.42-.19.28-.29.71-.29,1.3s.1,1.01.29,1.28c.19.27.48.4.87.4.21,0,.41-.03.58-.08.17-.05.33-.11.47-.18v.67c-.14.08-.29.14-.46.18-.16.04-.36.06-.6.06Z" fill="#72e064"/><path d="M53.38,31.49h-.72v-4.56h.72v4.56Z" fill="#72e064"/><path d="M54.53,28.75c0-.5.03-.95.1-1.33.06-.39.17-.72.3-1s.31-.51.53-.68c.21-.17.47-.3.77-.37.33-.07.65-.15.97-.21s.61-.13.88-.19l.13.66c-.13.02-.28.05-.44.08-.16.03-.33.06-.49.1s-.32.07-.48.1-.29.06-.41.09c-.16.04-.31.1-.44.2-.13.09-.25.22-.34.37-.09.16-.17.35-.22.58-.05.23-.09.5-.1.81h.05c.05-.08.11-.16.19-.25s.18-.16.29-.23.24-.12.38-.17.3-.07.47-.07c.26,0,.49.05.69.15s.36.24.5.42.23.4.3.65c.07.25.1.52.1.82,0,.38-.05.71-.14,1-.09.29-.22.52-.38.71-.16.19-.36.33-.59.43-.23.1-.48.14-.76.14s-.54-.06-.77-.18c-.23-.12-.42-.3-.59-.54-.16-.24-.29-.53-.37-.88-.09-.35-.13-.75-.13-1.21ZM56.43,30.95c.16,0,.3-.03.43-.08.13-.05.24-.14.33-.26s.16-.28.21-.48.08-.44.08-.73c0-.23-.02-.44-.05-.63-.03-.19-.09-.34-.17-.48s-.17-.23-.29-.3c-.12-.07-.26-.11-.44-.11-.16,0-.31.03-.45.1-.14.07-.27.15-.38.24s-.2.19-.28.29c-.08.1-.13.19-.16.26,0,.28.02.55.05.81.03.26.09.49.18.69.09.2.2.37.35.49s.34.18.58.18Z" fill="#72e064"/><path d="M65.03,29.2c0,.38-.04.72-.13,1.01-.09.29-.22.54-.38.74-.17.2-.37.35-.6.46-.24.1-.5.16-.79.16-.27,0-.52-.05-.75-.16-.23-.1-.43-.26-.6-.46-.17-.2-.3-.45-.39-.74-.09-.29-.14-.63-.14-1.01s.04-.71.13-1c.09-.29.21-.54.38-.74s.36-.35.6-.46c.24-.1.5-.16.79-.16.27,0,.52.05.75.16.23.1.43.26.6.46.17.2.3.45.39.74s.14.63.14,1ZM61.98,29.2c0,.58.09,1.01.27,1.31s.47.44.88.44.7-.15.88-.44.27-.73.27-1.31-.09-1.01-.27-1.3c-.18-.29-.47-.43-.88-.43s-.7.14-.88.43c-.18.29-.27.72-.27,1.3Z" fill="#72e064"/><path d="M66.88,31.49h-.72v-4.56h3.44v4.56h-.72v-3.92h-2v3.92Z" fill="#72e064"/><path d="M74.03,31.49h-.72v-3.92h-1.02c-.05.72-.12,1.33-.21,1.83-.08.5-.19.91-.31,1.23s-.27.55-.45.7c-.17.15-.37.22-.6.22-.07,0-.14,0-.21-.01-.06,0-.12-.02-.16-.04v-.54c.06.02.13.02.2.02.15,0,.28-.08.39-.24.12-.16.22-.41.31-.74.09-.33.17-.75.24-1.26s.12-1.11.17-1.8h2.36v4.56Z" fill="#72e064"/><path d="M77.86,31.49l-.15-.63h-.03c-.09.12-.17.23-.26.32s-.18.16-.29.22c-.1.06-.22.1-.34.13s-.27.04-.44.04c-.18,0-.35-.03-.5-.08-.15-.05-.29-.14-.4-.25-.11-.11-.2-.25-.26-.42-.06-.17-.1-.37-.1-.6,0-.45.15-.8.46-1.05.31-.24.77-.38,1.39-.4l.73-.03v-.29c0-.19-.02-.34-.06-.46-.04-.12-.09-.22-.17-.3-.07-.08-.16-.13-.27-.16-.11-.03-.23-.05-.37-.05-.22,0-.42.03-.61.1-.19.07-.37.15-.54.24l-.25-.57c.2-.11.41-.2.65-.28s.49-.12.76-.12.5.03.7.08c.2.06.36.15.49.27s.22.28.29.47c.06.19.09.42.09.69v3.12h-.52ZM76.54,30.96c.16,0,.31-.03.45-.08s.26-.13.36-.24c.1-.11.18-.24.24-.4.06-.16.08-.35.08-.57v-.41l-.57.03c-.24.01-.44.04-.6.08s-.29.11-.39.18c-.1.08-.17.17-.21.29-.04.11-.06.24-.06.38,0,.25.06.44.19.56.13.12.3.18.5.18Z" fill="#72e064"/><path d="M82.28,27.57h-1.26v3.92h-.72v-3.92h-1.26v-.64h3.25v.64Z" fill="#72e064"/><path d="M83.81,26.93v2.77l-.05,1.05,2.04-3.82h.92v4.56h-.68v-2.69l.04-1.12-2.04,3.81h-.93v-4.56h.68Z" fill="#72e064"/><g id="LeoCard_logo"><rect x="3.33" y="46.17" width="18.45" height="11.16" rx="1" ry="1" fill="url(#radial-gradient-2)" stroke="#111630" stroke-miterlimit="10" stroke-width=".5"/><path d="M5.59,50.18h.54s-.05,2.26-.06,2.42.06.28.17.29.62.01.62.01l-.08.48s-.57.01-.83-.02-.42-.31-.42-.55.06-2.63.06-2.63Z" fill="#fff"/><path d="M7.55,52.69c0,.07.05.17.1.17.06,0,1.07-.01,1.07-.01h0l-.07.51s-.94.02-1.2,0c-.26-.02-.43-.24-.43-.57s-.02-.85.01-1.22c.03-.37.31-.65.5-.65s.65,0,1.01,0c.4,0,.44.3.44.72s0,.71,0,.71h-1.42s-.02-.46-.02-.46h.91s0-.32,0-.35-.07-.09-.12-.09-.61,0-.63,0c-.07,0-.12.05-.12.12,0,.04-.01.8-.01,1.11Z" fill="#fff"/><path d="M10.51,50.92h-.46c-.43,0-.78.35-.78.78v.9c0,.43.35.78.78.78h.46c.43,0,.78-.35.78-.78v-.9c0-.43-.35-.78-.78-.78ZM10.78,52.58c0,.18-.14.32-.32.32h-.37c-.18,0-.32-.14-.32-.32v-.87c0-.18.14-.32.32-.32h.37c.18,0,.32.14.32.32v.87Z" fill="#fff"/><path d="M12.41,52.84c-.15,0-.31-.12-.31-.33v-1.53c0-.16.15-.34.3-.34h.9s.09-.59.09-.59c0,0-.02,0-.03,0h-1.09c-.42,0-.76.36-.76.81v1.75c0,.45.34.81.76.81h1.07v-.59" fill="#fff"/><path d="M16.63,53.44v-1.83c0-.08.06-.14.14-.14h.76l.07-.51s-.01,0-.02,0h-.85c-.33,0-.6.29-.6.64v1.38s0,.44,0,.47" fill="#fff"/><path d="M14.14,51.4l-.09-.55s.91.01,1.18.02.49.28.49.53l-.05,2.04h-1.52c-.22,0-.38-.3-.38-.72s.1-.81.34-.81,1.08,0,1.08,0l-.02.48s-.67,0-.73,0-.2,0-.2.26.16.27.2.27.71,0,.71,0c0,0,.02-1.25.01-1.37,0-.07-.1-.17-.18-.17s-.83,0-.83,0Z" fill="#fff"/><path d="M18.08,53.44c-.27,0-.38-.27-.38-.58v-1.45c0-.25.27-.52.6-.52h.85s-.01.57-.01.57c0,0-.58,0-.68,0s-.23.12-.23.29,0,.76,0,.88.09.28.19.29.62,0,.62,0v-2.75s.55,0,.55,0v3.28" fill="#fff"/></g><g id="Mastercard_logo"><rect x="28" y="46.17" width="18.46" height="11.16"/><path d="M32.7,56.43v-.72c0-.27-.17-.45-.45-.46-.15,0-.3.04-.4.2-.08-.13-.2-.2-.38-.2-.12,0-.24.04-.34.17v-.14h-.25v1.15h.25v-.64c0-.2.11-.3.28-.3s.25.11.25.3v.64h.25v-.64c0-.2.12-.3.28-.3s.25.11.25.3v.64h.25ZM36.43,55.28h-.41v-.35h-.25v.35h-.23v.23h.23v.52c0,.27.1.42.4.42.11,0,.23-.03.31-.09l-.07-.21c-.07.04-.16.06-.22.06-.12,0-.17-.08-.17-.19v-.52h.41v-.23ZM38.56,55.25c-.14,0-.24.07-.3.17v-.14h-.25v1.15h.25v-.64c0-.19.08-.3.24-.3.05,0,.1,0,.16.03l.08-.24c-.06-.02-.13-.03-.18-.03h0ZM35.34,55.37c-.12-.08-.29-.12-.47-.12-.29,0-.48.14-.48.37,0,.19.14.3.4.34l.12.02c.14.02.2.06.2.12,0,.09-.09.14-.26.14s-.3-.06-.38-.12l-.12.19c.14.1.31.15.5.15.33,0,.52-.16.52-.37,0-.2-.15-.31-.4-.34l-.12-.02c-.11-.01-.19-.04-.19-.11,0-.08.08-.13.22-.13.15,0,.29.06.36.1l.11-.2ZM42.03,55.25c-.14,0-.24.07-.3.17v-.14h-.25v1.15h.25v-.64c0-.19.08-.3.24-.3.05,0,.1,0,.16.03l.08-.24c-.06-.02-.13-.03-.18-.03h0ZM38.81,55.85c0,.35.24.6.61.6.17,0,.29-.04.41-.14l-.12-.2c-.09.07-.19.1-.3.1-.2,0-.35-.15-.35-.37s.15-.36.35-.37c.11,0,.21.04.3.1l.12-.2c-.12-.1-.24-.14-.41-.14-.37,0-.61.25-.61.6h0ZM41.15,55.85v-.57h-.25v.14c-.08-.1-.2-.17-.36-.17-.32,0-.57.25-.57.6s.25.6.57.6c.16,0,.28-.06.36-.17v.14h.25v-.57ZM40.22,55.85c0-.2.13-.37.35-.37s.35.16.35.37-.14.37-.35.37-.35-.17-.35-.37h0ZM37.21,55.25c-.34,0-.57.24-.57.6s.24.6.59.6c.17,0,.33-.04.47-.16l-.12-.18c-.1.08-.22.12-.33.12-.16,0-.31-.07-.34-.28h.85s0-.06,0-.1c0-.36-.22-.6-.54-.6h0ZM37.21,55.47c.16,0,.26.1.29.28h-.6c.03-.17.13-.28.3-.28h0ZM43.47,55.85v-1.03h-.25v.6c-.08-.1-.2-.17-.36-.17-.32,0-.57.25-.57.6s.25.6.57.6c.16,0,.28-.06.36-.17v.14h.25v-.57ZM43.76,56.32s.02,0,.03,0c0,0,.02,0,.02.02,0,0,.01.01.02.02,0,0,0,.02,0,.03s0,.02,0,.03c0,0,0,.02-.02.02,0,0-.01.01-.02.02,0,0-.02,0-.03,0s-.02,0-.03,0c0,0-.02,0-.02-.02,0,0-.01-.01-.02-.02,0,0,0-.02,0-.03s0-.02,0-.03c0,0,0-.02.02-.02,0,0,.01-.01.02-.02s.02,0,.03,0ZM43.76,56.45s.02,0,.02,0c0,0,.01,0,.02-.01,0,0,0-.01.01-.02,0,0,0-.01,0-.02s0-.02,0-.02c0,0,0-.01-.01-.02,0,0-.01,0-.02-.01,0,0-.01,0-.02,0s-.02,0-.02,0c0,0-.01,0-.02.01,0,0,0,.01-.01.02,0,0,0,.01,0,.02s0,.02,0,.02c0,0,0,.01.01.02,0,0,.01,0,.02.01,0,0,.01,0,.02,0ZM43.76,56.36s.02,0,.02,0c0,0,0,0,0,.02,0,0,0,.01,0,.01,0,0,0,0-.02,0l.02.03h-.02l-.02-.03h0v.03h-.01v-.07h.03ZM43.75,56.37v.02h.02s0,0,0,0c0,0,0,0,0,0s0,0,0,0c0,0,0,0,0,0h-.02ZM42.54,55.85c0-.2.13-.37.35-.37s.35.16.35.37-.14.37-.35.37-.35-.17-.35-.37h0ZM34.11,55.85v-.57h-.25v.14c-.08-.1-.2-.17-.36-.17-.32,0-.57.25-.57.6s.25.6.57.6c.16,0,.28-.06.36-.17v.14h.25v-.57ZM33.18,55.85c0-.2.13-.37.35-.37s.35.16.35.37-.14.37-.35.37-.35-.17-.35-.37Z" fill="#fff"/><rect x="35.52" y="47.81" width="3.12" height="5.61" fill="#f16122"/><path d="M35.72,50.62c0-1.14.53-2.15,1.36-2.8-.61-.48-1.37-.76-2.2-.76-1.97,0-3.57,1.6-3.57,3.57s1.6,3.57,3.57,3.57c.83,0,1.6-.28,2.2-.76-.83-.65-1.36-1.67-1.36-2.8Z" fill="#e91d25"/><path d="M42.85,50.62c0,1.97-1.6,3.57-3.57,3.57-.83,0-1.6-.28-2.2-.76.83-.65,1.36-1.67,1.36-2.8s-.53-2.15-1.36-2.8c.61-.48,1.37-.76,2.2-.76,1.97,0,3.57,1.6,3.57,3.57Z" fill="#f79e1d"/><path d="M42.51,52.83v-.11h.05v-.02h-.12v.02h.05v.11h.03ZM42.74,52.83v-.14h-.04l-.04.1-.04-.1h-.04v.14h.03v-.1l.04.09h.03l.04-.09v.1h.03Z" fill="#f79e1d"/></g><g id="Visa_logo"><path d="M69.73,57.78h-17.47v-11.56h17.47v11.56Z" fill="#fff" fill-rule="evenodd"/><path d="M58.58,53.88l1.13-3.74h1.01l-1.13,3.74h-1.01ZM58.13,50.14l-.91,1.59c-.23.42-.37.63-.43.89h-.01c.02-.33-.03-.74-.03-.97l-.1-1.5h-1.7l-.02.1c.44,0,.7.22.77.67l.33,2.97h1.05l2.12-3.74h-1.06ZM66,53.88l-.03-.56h-1.26s-.26.56-.26.56h-1.1l1.99-3.73h1.35l.34,3.73h-1.03,0ZM65.88,51.67c-.01-.28-.02-.65,0-.88h-.01c-.06.19-.33.74-.44,1.02l-.38.82h.89l-.05-.96ZM61.79,53.98c-.71,0-1.19-.23-1.53-.43l.48-.74c.3.17.54.37,1.09.37.18,0,.35-.05.44-.21.14-.24-.03-.37-.43-.6l-.2-.13c-.59-.4-.84-.78-.56-1.44.18-.42.64-.75,1.41-.75.53,0,1.03.23,1.32.45l-.55.65c-.28-.23-.52-.34-.78-.34-.21,0-.38.08-.43.19-.11.21.03.35.34.54l.23.15c.71.45.88.92.7,1.36-.31.76-.91.93-1.54.93h0ZM67.33,50.64h-.04v-.27h.1c.06,0,.1.02.1.08,0,.05-.03.07-.07.07l.07.12h-.05l-.07-.11h-.04v.11h0ZM67.38,50.49s.06,0,.06-.04c0-.03-.03-.04-.06-.04h-.05v.08h.05ZM67.38,50.75c-.14,0-.24-.1-.24-.24,0-.14.11-.24.24-.24s.24.1.24.24-.11.24-.24.24ZM67.38,50.31c-.1,0-.19.08-.19.2,0,.11.07.2.19.2.1,0,.18-.08.18-.2s-.08-.2-.18-.2Z" fill="#1d5b98" fill-rule="evenodd"/><path d="M69.3,55.04h-16.58v2.22h16.58v-2.22h0Z" fill="#e6a738" fill-rule="evenodd"/><path d="M69.27,46.77h-16.58v2.22h16.58v-2.22ZM68.89,57.1h-.04v-.27h.1c.06,0,.1.02.1.08,0,.05-.03.07-.07.07l.07.12h-.05l-.07-.11h-.04v.11h0ZM68.94,56.95s.06,0,.06-.04c0-.03-.03-.04-.06-.04h-.05v.08h.05ZM68.94,57.2c-.14,0-.24-.1-.24-.24,0-.14.11-.24.24-.24s.24.1.24.24-.11.24-.24.24ZM68.94,56.76c-.1,0-.19.08-.19.2,0,.11.07.2.19.2.1,0,.18-.08.18-.2s-.08-.2-.18-.2Z" fill="#1d5b98" fill-rule="evenodd"/></g><g id="QR_icon"><polygon points="85.43 52.52 85.43 53.58 86.46 53.58 86.46 52.52 87.53 52.52 87.53 55.68 84.36 55.68 84.36 54.62 83.33 54.62 83.33 57.78 82.27 57.78 82.27 52.52 85.43 52.52" fill="#72e064"/><rect x="86.46" y="56.71" width="1.06" height="1.06" fill="#72e064"/><rect x="84.36" y="56.71" width="1.06" height="1.06" fill="#72e064"/><path d="M81.2,52.52v5.26h-5.26v-5.26h5.26ZM77,53.58v3.13h3.16v-3.13h-3.16Z" fill="#72e064"/><rect x="78.04" y="54.62" width="1.06" height="1.06" fill="#72e064"/><path d="M87.53,46.22v5.26h-5.26v-5.26h5.26ZM83.33,47.26v3.16h3.13v-3.16h-3.13Z" fill="#72e064"/><rect x="84.36" y="48.32" width="1.06" height="1.03" fill="#72e064"/><path d="M81.2,46.22v5.26h-5.26v-5.26h5.26ZM77,47.26v3.16h3.16v-3.16h-3.16Z" fill="#72e064"/><rect x="78.04" y="48.32" width="1.06" height="1.03" fill="#72e064"/></g></g><g id="Ticket_add_button"><rect x=".75" y="63.5" width="88.5" height="23" rx=".99" ry=".99" fill="url(#linear-gradient)" stroke="#fff" stroke-miterlimit="10" stroke-width=".75"/><path d="M25.98,79.54h-.6v-1.38h-3.16v1.38h-.6v-1.98h.39c.11-.2.21-.42.31-.67.1-.24.19-.49.28-.75.09-.26.17-.53.24-.8.07-.28.14-.55.19-.83.05-.28.1-.55.13-.83.03-.27.05-.53.06-.79h2.09v4.66h.66v1.98ZM24.68,77.56v-4.06h-.89c0,.18-.03.38-.07.61s-.08.45-.13.7c-.05.24-.11.49-.18.74-.07.25-.14.5-.22.74-.08.24-.16.47-.25.69-.09.22-.18.42-.26.6h2.02Z" fill="#231f20"/><path d="M29.77,76.18c0,.33-.04.62-.11.88-.08.26-.19.47-.33.64-.14.17-.31.31-.52.4s-.43.14-.68.14c-.23,0-.45-.05-.65-.14s-.37-.22-.51-.4-.26-.39-.34-.64c-.08-.25-.12-.55-.12-.88s.04-.62.11-.87c.08-.25.19-.47.33-.64.14-.17.31-.31.52-.4.2-.09.43-.13.69-.13.23,0,.45.04.65.13s.37.22.51.4c.14.17.26.39.34.64.08.25.12.54.12.87ZM27.15,76.18c0,.5.08.88.23,1.13.16.25.41.38.76.38s.6-.13.76-.38.23-.63.23-1.13-.08-.88-.23-1.12c-.16-.25-.41-.37-.76-.37s-.6.12-.76.37c-.15.25-.23.62-.23,1.12Z" fill="#231f20"/><path d="M33.84,79.53h-.59v-1.37h-2.36v1.37h-.59v-1.92h.29c.15-.23.28-.47.39-.74.11-.27.21-.55.28-.84.08-.29.13-.59.17-.9s.06-.61.06-.92h1.83v3.39h.52v1.92ZM32.7,77.6v-2.89h-.66c-.02.25-.04.5-.09.76-.04.26-.09.51-.16.76-.07.25-.15.49-.24.72s-.2.45-.32.65h1.46Z" fill="#231f20"/><path d="M36.76,78.16l-.13-.55h-.03c-.08.11-.15.2-.23.28s-.16.14-.25.19c-.09.05-.19.09-.3.11-.11.02-.24.04-.38.04-.16,0-.3-.02-.43-.07-.13-.05-.25-.12-.34-.22-.1-.1-.17-.22-.23-.37s-.08-.32-.08-.52c0-.39.13-.69.39-.91.26-.21.66-.33,1.2-.34l.63-.03v-.25c0-.16-.02-.29-.05-.4-.03-.11-.08-.2-.14-.26s-.14-.11-.23-.14c-.09-.03-.2-.04-.32-.04-.19,0-.36.03-.53.09-.16.06-.32.13-.47.21l-.22-.49c.17-.1.36-.18.56-.24s.42-.1.65-.1.43.02.6.07c.17.05.31.13.42.23s.19.24.25.41c.05.17.08.37.08.6v2.7h-.45ZM35.62,77.7c.14,0,.27-.02.39-.07.12-.05.22-.11.31-.21.09-.09.15-.21.2-.35.05-.14.07-.3.07-.49v-.36l-.49.03c-.21,0-.38.03-.52.07-.14.04-.25.09-.33.16-.08.07-.14.15-.18.25-.04.1-.05.21-.05.33,0,.22.06.38.17.48.11.1.26.16.44.16Z" fill="#231f20"/><path d="M40.57,74.76h-1.09v3.39h-.62v-3.39h-1.09v-.55h2.8v.55Z" fill="#231f20"/><path d="M41.89,74.21v2.4l-.04.91,1.76-3.31h.8v3.95h-.59v-2.33l.04-.97-1.76,3.3h-.8v-3.95h.59Z" fill="#231f20"/><path d="M49.42,74.21h.67l-1.42,1.89,1.55,2.05h-.7l-1.49-2v2h-.61v-3.95h.61v1.92l1.39-1.92Z" fill="#231f20"/><path d="M53.72,75.21c0,.25-.07.44-.21.58s-.33.23-.58.27v.03c.13.02.25.05.36.09s.21.1.29.17c.08.07.14.17.19.27.05.11.07.24.07.39,0,.16-.03.31-.08.45-.05.14-.14.26-.25.36-.12.1-.26.18-.44.24s-.4.09-.66.09h-1.55v-3.95h1.55c.19,0,.36.02.53.05.16.03.3.09.42.17.12.08.21.18.28.31s.1.29.1.47ZM53.12,75.27c0-.18-.06-.32-.19-.39s-.31-.12-.55-.12h-.91v1.07h.81c.14,0,.26,0,.37-.03.1-.02.19-.05.26-.09.07-.04.12-.1.16-.17.04-.07.05-.16.05-.27ZM53.23,76.97c0-.22-.07-.37-.22-.46-.15-.09-.37-.13-.66-.13h-.87v1.24h.89c.13,0,.24-.01.35-.03.11-.02.2-.06.27-.11.08-.05.14-.12.18-.2.04-.08.07-.18.07-.31Z" fill="#231f20"/><path d="M55.4,74.21v2.4l-.04.91,1.76-3.31h.8v3.95h-.59v-2.33l.04-.97-1.76,3.3h-.8v-3.95h.59Z" fill="#231f20"/><path d="M61.46,74.76h-1.09v3.39h-.62v-3.39h-1.09v-.55h2.8v.55Z" fill="#231f20"/><path d="M64.2,74.21h.67l-1.42,1.89,1.55,2.05h-.7l-1.49-2v2h-.61v-3.95h.61v1.92l1.39-1.92Z" fill="#231f20"/><path d="M66.21,74.21v2.4l-.04.91,1.76-3.31h.8v3.95h-.59v-2.33l.04-.97-1.76,3.3h-.8v-3.95h.59Z" fill="#231f20"/><path id="Buttonette" d="M88.97,83.77s-3.07-2.28-3.07-8.51,3.07-8.17,3.07-8.17v16.68Z" fill="#e6eaf8" stroke="#fff" stroke-miterlimit="10"/><path d="M13,74.5h-2.5v-2.5h-1v2.5h-2.5v1h2.5v2.5h1v-2.5h2.5v-1Z"/></g><g id="Ticket_info_button"><rect x="1.25" y="94.75" width="87.5" height="22.5" rx=".99" ry=".99" fill="#fff" stroke="#fff" stroke-miterlimit="10" stroke-width=".75"/><path d="M28.48,104.24h-1.81v-.37l.59-.15v-4.23l-.59-.15v-.37h1.81v.37l-.59.15v4.23l.59.15v.37Z" fill="#231f20"/><path d="M29.97,100.29v1.64h1.86v-1.64h.62v3.95h-.62v-1.76h-1.86v1.76h-.62v-3.95h.62Z" fill="#231f20"/><path d="M35.79,100.24c.26.03.49.09.71.2s.4.24.56.41c.15.17.28.38.36.61s.13.51.13.8-.04.57-.12.81c-.08.24-.2.45-.35.62-.15.17-.34.31-.55.42-.22.1-.46.17-.73.19v1.71h-.58v-1.71c-.26-.02-.5-.09-.72-.19-.22-.1-.4-.24-.56-.41-.16-.17-.28-.38-.36-.62-.09-.24-.13-.51-.13-.81s.04-.57.12-.81c.08-.24.2-.44.35-.61s.34-.31.56-.41c.22-.1.47-.17.74-.19v-1.59h.58v1.59ZM34.08,102.26c0,.45.09.8.27,1.05.18.25.46.4.86.45v-2.98c-.2.02-.37.07-.51.14-.14.07-.26.17-.35.29-.09.12-.16.27-.2.45-.04.17-.06.37-.06.6ZM36.9,102.26c0-.45-.09-.79-.26-1.04-.18-.24-.46-.39-.85-.44v2.97c.39-.05.67-.2.85-.45s.26-.6.26-1.05Z" fill="#231f20"/><path d="M41.57,102.26c0,.33-.04.62-.11.88-.08.26-.19.47-.33.64-.14.17-.31.31-.52.4s-.43.14-.68.14c-.23,0-.45-.05-.65-.14s-.37-.22-.51-.4-.26-.39-.34-.64c-.08-.25-.12-.55-.12-.88s.04-.62.11-.87c.08-.25.19-.47.33-.64.14-.17.31-.31.52-.4.2-.09.43-.13.69-.13.23,0,.45.04.65.13s.37.22.51.4c.14.17.26.39.34.64.08.25.12.54.12.87ZM38.95,102.26c0,.5.08.88.23,1.13.16.25.41.38.76.38s.6-.13.76-.38.23-.63.23-1.13-.08-.88-.23-1.12c-.16-.25-.41-.37-.76-.37s-.6.12-.76.37c-.15.25-.23.62-.23,1.12Z" fill="#231f20"/><path d="M44.25,104.31c-.13,0-.26-.02-.37-.05s-.21-.07-.3-.12c-.09-.05-.17-.11-.23-.18-.07-.07-.13-.14-.18-.22h-.04c0,.08.01.16.02.23,0,.06,0,.13.01.19,0,.07,0,.12,0,.16v1.69h-.62v-5.71h.51l.09.53h.03c.05-.08.11-.16.18-.24s.14-.14.23-.19c.09-.05.19-.1.3-.13.11-.03.23-.05.37-.05.21,0,.41.04.58.13.18.09.32.21.45.39.12.17.22.38.29.64s.1.55.1.88-.03.63-.1.89-.16.47-.29.64-.27.3-.45.39c-.18.09-.37.13-.58.13ZM44.13,100.76c-.17,0-.32.03-.44.08-.12.06-.22.14-.29.25-.07.11-.13.25-.16.42-.04.17-.06.37-.06.59v.15c0,.24.02.46.05.65.03.19.08.35.16.47.07.13.17.22.3.29.12.07.28.1.46.1.31,0,.53-.13.68-.39.14-.26.22-.64.22-1.12s-.07-.87-.22-1.12c-.14-.25-.37-.37-.68-.37Z" fill="#231f20"/><path d="M50.49,104.24h-.55v-3.22c-.01.05-.03.11-.05.18s-.04.14-.06.21c-.02.07-.04.14-.06.2-.02.06-.04.12-.05.16l-.9,2.47h-.46l-.91-2.47s-.03-.08-.05-.13-.04-.12-.06-.19c-.02-.07-.04-.14-.07-.22s-.04-.14-.05-.21v3.22h-.55v-3.95h.75l.91,2.5c.03.08.06.16.08.24s.05.16.07.23c.02.07.04.14.06.2.02.06.03.11.04.15.01-.04.03-.09.04-.15s.04-.12.06-.19c.02-.07.04-.14.07-.22.03-.08.05-.16.08-.24l.92-2.52h.74v3.95Z" fill="#231f20"/><path d="M53.79,104.24l-.13-.55h-.03c-.08.11-.15.2-.23.28s-.16.14-.25.19c-.09.05-.19.09-.3.11-.11.02-.24.04-.38.04-.16,0-.3-.02-.43-.07-.13-.05-.25-.12-.34-.22s-.17-.22-.23-.37-.08-.32-.08-.52c0-.39.13-.69.39-.91.26-.21.66-.33,1.2-.34l.63-.03v-.25c0-.16-.02-.29-.05-.4-.03-.11-.08-.2-.14-.26s-.14-.11-.23-.14c-.09-.03-.2-.04-.32-.04-.19,0-.37.03-.53.09-.16.06-.32.13-.47.21l-.22-.49c.17-.1.36-.18.56-.24.21-.07.42-.1.65-.1s.43.02.6.07c.17.05.31.13.42.23.11.11.19.24.25.41s.08.37.08.6v2.7h-.45ZM52.65,103.78c.14,0,.27-.02.39-.07.12-.05.22-.11.31-.21.09-.09.15-.21.2-.35.05-.14.07-.3.07-.49v-.36l-.49.03c-.2,0-.38.03-.52.07s-.25.09-.33.16-.14.15-.18.25c-.04.1-.05.21-.05.33,0,.22.05.38.17.48.11.1.26.16.44.16Z" fill="#231f20"/><path d="M58.9,105.61h-.62v-1.37h-2.89v-3.95h.62v3.39h1.72v-3.39h.62v3.39h.55v1.92Z" fill="#231f20"/><path d="M60.22,104.24h-.62v-3.95h.62v3.95Z" fill="#231f20"/><path d="M61.61,104.24h-.68l.99-1.66c-.1-.03-.2-.07-.3-.13s-.18-.13-.25-.22c-.07-.09-.13-.2-.18-.33-.05-.13-.07-.28-.07-.45,0-.19.03-.35.1-.5.06-.15.15-.27.27-.36.11-.1.25-.17.41-.22.16-.05.33-.08.52-.08h1.52v3.95h-.62v-1.55h-.83l-.87,1.55ZM61.72,101.47c0,.12.02.21.06.3.04.08.1.15.17.21.07.05.16.1.26.12s.22.04.34.04h.75v-1.29h-.87c-.24,0-.42.06-.54.17-.12.11-.18.26-.18.45Z" fill="#231f20"/><path d="M28.56,113.07h-.62v-3.95h2.96v3.95h-.62v-3.39h-1.72v3.39Z" fill="#231f20"/><path d="M33.79,113.14c-.13,0-.26-.02-.37-.05s-.21-.07-.3-.12c-.09-.05-.17-.11-.23-.18-.07-.07-.13-.14-.18-.22h-.04c0,.08.01.16.02.23,0,.06,0,.13.01.19,0,.07,0,.12,0,.16v1.69h-.62v-5.71h.51l.09.53h.03c.05-.08.11-.16.18-.24s.14-.14.23-.19c.09-.05.19-.1.3-.13.11-.03.23-.05.37-.05.21,0,.41.04.58.13.18.09.32.21.45.39.12.17.22.38.29.64s.1.55.1.88-.03.63-.1.89-.16.47-.29.64-.27.3-.45.39c-.18.09-.37.13-.58.13ZM33.67,109.6c-.17,0-.32.03-.44.08-.12.06-.22.14-.29.25-.07.11-.13.25-.16.42-.04.17-.06.37-.06.59v.15c0,.24.02.46.05.65.03.19.08.35.16.47.07.13.17.22.3.29.12.07.28.1.46.1.31,0,.53-.13.68-.39.14-.26.22-.64.22-1.12s-.07-.87-.22-1.12c-.14-.25-.37-.37-.68-.37Z" fill="#231f20"/><path d="M39.25,111.09c0,.33-.04.62-.11.88-.08.26-.19.47-.33.64-.14.17-.31.31-.52.4s-.43.14-.68.14c-.23,0-.45-.05-.65-.14s-.37-.22-.51-.4-.26-.39-.34-.64c-.08-.25-.12-.55-.12-.88s.04-.62.11-.87c.08-.25.19-.47.33-.64.14-.17.31-.31.52-.4.2-.09.43-.13.69-.13.23,0,.45.04.65.13s.37.22.51.4c.14.17.26.39.34.64.08.25.12.54.12.87ZM36.63,111.09c0,.5.08.88.23,1.13.16.25.41.38.76.38s.6-.13.76-.38.23-.63.23-1.13-.08-.88-.23-1.12c-.16-.25-.41-.37-.76-.37s-.6.12-.76.37c-.15.25-.23.62-.23,1.12Z" fill="#231f20"/><path d="M44.06,109.13h.67l-1.42,1.89,1.55,2.05h-.7l-1.49-2v2h-.61v-3.95h.61v1.92l1.39-1.92Z" fill="#231f20"/><path d="M48.35,110.12c0,.25-.07.44-.21.58-.14.14-.33.23-.58.27v.03c.13.02.25.05.36.09.11.04.21.1.29.17.08.07.14.17.19.27.05.11.07.24.07.39,0,.16-.03.31-.08.45-.05.14-.14.26-.25.36-.12.1-.26.18-.44.24-.18.06-.4.09-.66.09h-1.55v-3.95h1.55c.19,0,.36.02.53.05s.3.09.42.17c.12.08.21.18.28.31.07.13.1.29.1.47ZM47.76,110.19c0-.18-.06-.32-.19-.39-.12-.08-.31-.12-.55-.12h-.91v1.07h.8c.14,0,.27,0,.37-.03.11-.02.19-.05.27-.09.07-.04.12-.1.16-.17s.05-.16.05-.27ZM47.86,111.89c0-.22-.07-.37-.22-.46-.15-.09-.37-.13-.66-.13h-.87v1.24h.89c.13,0,.24-.01.35-.03.11-.02.2-.06.27-.11.08-.05.13-.12.18-.2.04-.08.07-.18.07-.31Z" fill="#231f20"/><path d="M50.04,109.13v2.4l-.04.91,1.76-3.31h.8v3.95h-.59v-2.33l.04-.97-1.76,3.3h-.8v-3.95h.59Z" fill="#231f20"/><path d="M56.09,109.68h-1.09v3.39h-.62v-3.39h-1.09v-.55h2.8v.55Z" fill="#231f20"/><path d="M59.75,111.09c0,.33-.04.62-.12.88-.08.26-.19.47-.33.64-.14.17-.32.31-.52.4-.2.09-.43.14-.68.14-.23,0-.45-.05-.65-.14s-.37-.22-.51-.4c-.15-.17-.26-.39-.34-.64-.08-.25-.12-.55-.12-.88s.04-.62.11-.87c.08-.25.19-.47.33-.64.14-.17.31-.31.52-.4.2-.09.43-.13.68-.13.24,0,.45.04.65.13s.37.22.51.4c.14.17.26.39.34.64.08.25.12.54.12.87ZM57.12,111.09c0,.5.08.88.23,1.13.16.25.41.38.76.38s.6-.13.76-.38.23-.63.23-1.13-.08-.88-.23-1.12c-.16-.25-.41-.37-.76-.37s-.6.12-.76.37c-.15.25-.23.62-.23,1.12Z" fill="#231f20"/><path d="M62.73,109.13h.67l-1.42,1.89,1.55,2.05h-.7l-1.49-2v2h-.61v-3.95h.61v1.92l1.39-1.92Z" fill="#231f20"/><path id="Buttonette-2" d="M88.75,114.84s-3.07-2.28-3.07-8.51,3.07-8.17,3.07-8.17v16.68Z" stroke="#000" stroke-miterlimit="10"/><path d="M10.31,103.86c0,.46-.41.84-.91.84s-.91-.38-.91-.84.41-.84.91-.84.91.38.91.84Z"/><path d="M10.37,108.31c0,.2.1.26.35.28h.41v.39h-3.17v-.38h.45c.27-.01.33-.11.35-.29v-2.3c0-.36-.51-.31-.87-.3v-.38l2.49-.08"/></g><polygon id="Payment_dir_arrow" points="33.86 130.09 54.91 130.09 44.39 140.31 33.86 130.09" fill="#72e064"/><g id="Lang_icon"><path d="M74.72,143.36v-8.26c4.92-2.42,6.77,3.2,12.3,0v8.26c-4.92,3.37-8-2.83-12.3,0" fill="#3c5896" fill-rule="evenodd"/><path d="M78.9,138.92c-.04.17-.06.34-.06.51s.02.35.06.51h.72c-.03-.34-.03-.68,0-1.01h-.72ZM79.11,138.42h.6c.07-.31.17-.59.28-.82-.37.18-.67.46-.88.82ZM82.84,138.92h-.72c.03.34.03.68,0,1.01h.72c.04-.16.06-.33.06-.51s-.02-.35-.06-.51ZM82.63,138.42c-.2-.35-.51-.64-.88-.82.12.23.22.51.28.82h.6ZM80.14,138.92c-.02.17-.03.34-.03.51s0,.34.03.51h1.47c.04-.34.04-.68,0-1.01h-1.47ZM80.23,138.42h1.28c-.05-.19-.11-.38-.2-.55-.16-.32-.33-.46-.44-.46s-.28.14-.44.46c-.08.16-.15.35-.2.55ZM79.11,140.45c.2.35.51.64.88.82-.12-.23-.22-.51-.28-.82h-.6ZM82.63,140.45h-.6c-.07.31-.16.59-.28.82.37-.18.67-.46.88-.82ZM80.23,140.45c.05.21.12.39.2.55.16.32.33.46.44.46s.28-.14.44-.46c.08-.16.15-.35.2-.55h-1.28ZM80.87,141.97c-1.4,0-2.54-1.14-2.54-2.54s1.14-2.54,2.54-2.54,2.54,1.14,2.54,2.54-1.14,2.54-2.54,2.54Z" fill="#fff"/></g></g></svg>