<?xml version="1.0" encoding="UTF-8"?><svg id="Layer_1" xmlns="http://www.w3.org/2000/svg" xmlns:xlink="http://www.w3.org/1999/xlink" viewBox="0 0 90 150"><defs><linearGradient id="linear-gradient" x1="45" y1="94.5" x2="45" y2="117.5" gradientUnits="userSpaceOnUse"><stop offset="0" stop-color="#e8b421"/><stop offset=".41" stop-color="#e6b223"/><stop offset=".63" stop-color="#e0ab2b"/><stop offset=".81" stop-color="#d69f39"/><stop offset=".97" stop-color="#c88f4c"/><stop offset="1" stop-color="#c58c51"/></linearGradient></defs><rect id="Bg" x=".31" y=".31" width="90" height="150" fill="#101010"/><g id="Ukr_lang_button"><rect x="1.25" y="63.75" width="87.5" height="22.5" rx=".99" ry=".99" fill="#fff" stroke="#fff" stroke-miterlimit="10" stroke-width=".75"/><path d="M31.75,72.9l-1.46,3.7c-.09.22-.18.43-.27.63-.09.2-.21.37-.33.52s-.28.26-.46.35c-.18.09-.39.13-.65.13-.12,0-.23,0-.33-.03s-.2-.04-.28-.08v-.67c.08.05.18.09.28.12.1.03.21.04.33.04s.23-.01.32-.04.18-.07.25-.14.14-.15.21-.25c.06-.1.13-.23.19-.38l-1.81-3.91h.7l1.31,2.91s.02.05.03.08c.01.03.02.06.03.09s.02.06.03.09.02.05.03.07h0s.02-.05.03-.09.02-.08.04-.11c.01-.04.02-.08.04-.11.01-.04.02-.06.03-.08l1.06-2.85h.67Z" fill="#231f20"/><path d="M34.15,74.21h.67l-1.42,1.89,1.55,2.05h-.7l-1.49-2v2h-.61v-3.95h.61v1.92l1.39-1.92Z" fill="#231f20"/><path d="M37.27,78.23c-.13,0-.26-.02-.37-.05s-.21-.07-.3-.12c-.09-.05-.17-.11-.23-.18-.07-.07-.13-.14-.18-.22h-.04c0,.08.01.16.02.23,0,.06,0,.13.01.19,0,.07,0,.12,0,.16v1.69h-.62v-5.71h.51l.09.53h.03c.05-.08.11-.16.18-.24s.14-.14.23-.19c.09-.05.19-.1.3-.13s.23-.05.37-.05c.21,0,.41.04.58.13.18.09.32.22.45.39.12.17.22.38.29.64s.1.55.1.88-.03.63-.1.89-.16.47-.29.64-.27.3-.45.39c-.18.09-.37.13-.58.13ZM37.15,74.68c-.17,0-.32.03-.44.08s-.22.14-.29.25c-.07.11-.13.25-.16.42-.04.17-.06.37-.06.59v.15c0,.24.02.46.05.65.03.19.08.35.16.47.07.13.17.22.3.29.12.07.28.1.46.1.31,0,.53-.13.68-.39.14-.26.22-.64.22-1.12s-.07-.87-.22-1.12c-.14-.25-.37-.37-.68-.37Z" fill="#231f20"/><path d="M41.79,78.16l-.13-.55h-.03c-.08.11-.15.2-.23.28s-.16.14-.25.19c-.09.05-.19.09-.3.11-.11.02-.24.04-.38.04-.16,0-.3-.02-.43-.07-.13-.05-.25-.12-.34-.22-.1-.1-.17-.22-.23-.37s-.08-.32-.08-.52c0-.39.13-.69.39-.91.26-.21.66-.33,1.2-.34l.63-.03v-.25c0-.16-.02-.29-.05-.4-.03-.11-.08-.2-.14-.26s-.14-.11-.23-.14c-.09-.03-.2-.04-.32-.04-.19,0-.36.03-.53.09-.16.06-.32.13-.47.21l-.22-.49c.17-.1.36-.18.56-.24s.42-.1.65-.1.43.02.6.07c.17.05.31.13.42.23s.19.24.25.41c.05.17.08.37.08.6v2.7h-.45ZM40.64,77.7c.14,0,.27-.02.39-.07.12-.05.22-.11.31-.21.09-.09.15-.21.2-.35.05-.14.07-.3.07-.49v-.36l-.49.03c-.21,0-.38.03-.52.07-.14.04-.25.09-.33.16-.08.07-.14.15-.18.25-.04.1-.05.21-.05.33,0,.22.06.38.17.48.11.1.26.16.44.16Z" fill="#231f20"/><path d="M42.73,73.14c0-.13.03-.22.1-.28.06-.06.14-.09.23-.09s.17.03.23.09c.07.06.1.15.1.28s-.03.22-.1.28c-.07.06-.14.09-.23.09s-.17-.03-.23-.09c-.06-.06-.1-.15-.1-.28ZM44,78.16h-.62v-3.95h.62v3.95ZM44.01,73.14c0-.13.03-.22.1-.28.06-.06.14-.09.23-.09.04,0,.08,0,.12.02.04.01.07.04.1.07.03.03.05.07.07.11.02.05.03.1.03.17,0,.13-.03.22-.1.28-.07.06-.14.09-.23.09-.09,0-.17-.03-.23-.09-.06-.06-.1-.15-.1-.28Z" fill="#231f20"/><path d="M45.81,74.21v1.63h1.86v-1.63h.62v3.95h-.62v-1.76h-1.86v1.76h-.62v-3.95h.62Z" fill="#231f20"/><path d="M50.92,78.23c-.23,0-.44-.04-.65-.11-.2-.08-.37-.2-.52-.36-.15-.16-.26-.37-.35-.63-.08-.26-.13-.56-.13-.92s.04-.7.13-.96.21-.48.36-.64c.15-.16.33-.28.53-.36.2-.07.42-.11.65-.11.18,0,.35.02.52.06.17.04.31.09.42.15l-.18.55c-.05-.02-.11-.05-.17-.07-.06-.02-.13-.04-.2-.06-.07-.02-.14-.03-.2-.04-.07-.01-.13-.02-.19-.02-.36,0-.62.12-.78.36-.16.24-.25.62-.25,1.12s.08.88.25,1.11c.17.23.42.35.75.35.18,0,.35-.02.5-.07.15-.04.29-.1.41-.16v.58c-.12.07-.25.12-.39.16-.14.04-.31.05-.51.05Z" fill="#231f20"/><path d="M53.35,75.83h.95c.48,0,.84.09,1.07.28s.35.47.35.84c0,.18-.03.35-.08.5-.05.15-.14.28-.25.38-.12.11-.26.19-.44.24-.18.06-.4.08-.66.08h-1.55v-3.95h.62v1.62ZM53.35,76.38v1.24h.89c.13,0,.24,0,.35-.03.11-.02.2-.06.27-.1.08-.05.14-.11.18-.19s.07-.18.07-.29-.02-.22-.06-.29c-.04-.08-.09-.14-.17-.19-.07-.05-.17-.08-.28-.1-.11-.02-.24-.03-.38-.03h-.87Z" fill="#231f20"/><path d="M58.7,74.21h.67l-1.42,1.89,1.55,2.05h-.7l-1.49-2v2h-.61v-3.95h.61v1.92l1.39-1.92Z" fill="#231f20"/><path d="M62.24,78.16l-.13-.55h-.03c-.08.11-.15.2-.23.28s-.16.14-.25.19c-.09.05-.19.09-.3.11-.11.02-.24.04-.38.04-.16,0-.3-.02-.43-.07-.13-.05-.25-.12-.34-.22s-.17-.22-.23-.37-.08-.32-.08-.52c0-.39.13-.69.39-.91.26-.21.66-.33,1.2-.34l.63-.03v-.25c0-.16-.02-.29-.05-.4s-.08-.2-.14-.26-.14-.11-.23-.14c-.09-.03-.2-.04-.32-.04-.19,0-.37.03-.53.09-.16.06-.32.13-.47.21l-.22-.49c.17-.1.36-.18.56-.24.21-.07.42-.1.65-.1s.43.02.6.07c.17.05.31.13.42.23s.19.24.25.41c.05.17.08.37.08.6v2.7h-.45ZM61.1,77.7c.14,0,.27-.02.39-.07.12-.05.22-.11.31-.21.09-.09.15-.21.2-.35.05-.14.07-.3.07-.49v-.36l-.49.03c-.2,0-.38.03-.52.07s-.25.09-.33.16-.14.15-.18.25c-.04.1-.05.21-.05.33,0,.22.05.38.17.48.11.1.26.16.44.16Z" fill="#231f20"/><path id="Buttonette" d="M88.75,83.85s-3.07-2.28-3.07-8.51,3.07-8.17,3.07-8.17v16.68Z" stroke="#000" stroke-miterlimit="10"/></g><g id="Eng_lang_button"><rect x=".75" y="94.5" width="88.5" height="23" rx=".99" ry=".99" fill="url(#linear-gradient)" stroke="#fff" stroke-miterlimit="10" stroke-width=".75"/><path d="M37.56,109.16h-2.59v-5.25h2.59v.59h-1.96v1.62h1.83v.58h-1.83v1.87h1.96v.59Z" fill="#231f20"/><path d="M40.92,109.16v-2.54c0-.31-.06-.54-.18-.7-.12-.16-.31-.23-.56-.23-.18,0-.34.03-.46.09-.12.06-.23.16-.3.28-.08.12-.13.27-.16.45-.03.18-.05.38-.05.61v2.04h-.62v-3.95h.51l.09.53h.03c.06-.1.12-.19.2-.27s.16-.14.26-.19c.09-.05.19-.09.3-.11.1-.02.21-.04.32-.04.42,0,.73.11.94.34.21.23.32.59.32,1.1v2.58h-.62Z" fill="#231f20"/><path d="M45.58,105.21v.41l-.67.1c.06.08.12.19.16.32.04.13.06.28.06.44,0,.18-.03.35-.08.5-.05.16-.13.29-.24.4-.11.11-.24.2-.4.26-.16.06-.34.1-.56.1-.05,0-.1,0-.15,0-.05,0-.09,0-.12-.01-.04.02-.08.05-.11.08s-.07.06-.1.1c-.03.04-.06.08-.08.13-.02.05-.03.1-.03.16,0,.06.01.12.04.16.03.04.06.07.11.09.05.02.1.04.17.04.06,0,.13.01.2.01h.6c.21,0,.39.03.54.08.15.06.26.13.36.23.09.1.16.21.2.34s.06.27.06.42c0,.21-.04.4-.11.57-.07.17-.19.31-.34.43-.15.12-.35.21-.58.27s-.51.09-.82.09c-.24,0-.46-.03-.64-.08-.18-.05-.33-.12-.45-.22s-.21-.21-.27-.35c-.06-.14-.09-.29-.09-.46,0-.14.02-.27.07-.38.04-.11.1-.2.18-.28.08-.08.16-.14.26-.19.1-.05.2-.09.31-.12-.1-.05-.17-.12-.24-.22-.06-.1-.09-.21-.09-.34,0-.15.04-.27.11-.38s.19-.21.34-.31c-.1-.04-.19-.1-.27-.18-.08-.08-.15-.16-.2-.26-.06-.1-.1-.2-.13-.32s-.05-.23-.05-.36c0-.21.03-.4.09-.57.06-.17.14-.31.25-.43.11-.12.25-.21.42-.27s.36-.09.58-.09c.08,0,.17,0,.26.02.09.01.17.03.23.05h1.24ZM42.81,109.8c0,.09.01.17.04.25.03.08.08.14.15.2.07.05.16.1.27.13.11.03.25.05.41.05.42,0,.74-.07.95-.21.21-.14.32-.34.32-.59,0-.11-.01-.2-.04-.27s-.07-.12-.14-.16c-.06-.04-.15-.07-.25-.08s-.23-.02-.38-.02h-.6c-.08,0-.16,0-.25.03-.09.02-.17.06-.24.11s-.13.12-.18.22c-.05.09-.07.21-.07.36ZM43.13,106.48c0,.28.06.48.18.62.12.13.3.2.52.2s.4-.07.52-.2c.12-.13.18-.34.18-.63s-.06-.51-.18-.65c-.12-.14-.29-.21-.52-.21s-.4.07-.52.21c-.12.14-.18.36-.18.65Z" fill="#231f20"/><path d="M46.94,109.16h-.62v-5.59h.62v5.59Z" fill="#231f20"/><path d="M48.08,104.14c0-.14.03-.25.1-.31.07-.06.16-.1.26-.1.05,0,.1,0,.14.02.04.02.08.04.12.07.03.03.06.08.08.13s.03.11.03.19c0,.14-.04.24-.11.31-.07.07-.16.1-.26.1s-.19-.03-.26-.1-.1-.17-.1-.31ZM48.75,109.16h-.62v-3.95h.62v3.95Z" fill="#231f20"/><path d="M52.18,108.07c0,.19-.03.36-.1.5-.07.14-.16.26-.29.36-.12.1-.27.17-.45.22-.18.05-.37.07-.59.07-.25,0-.46-.02-.64-.06s-.33-.1-.47-.18v-.6c.07.04.15.08.24.11s.18.07.27.1c.1.03.19.05.29.07.1.02.2.03.3.03.15,0,.27-.01.38-.04s.19-.06.25-.11c.07-.05.11-.11.14-.18.03-.07.04-.15.04-.24,0-.07-.01-.14-.03-.2-.02-.06-.06-.12-.12-.18s-.14-.12-.25-.18c-.11-.06-.24-.13-.4-.2s-.31-.15-.44-.22c-.13-.07-.24-.15-.33-.24-.09-.09-.16-.19-.21-.31s-.07-.25-.07-.42.03-.32.09-.45c.06-.13.15-.24.26-.33.11-.09.25-.16.41-.2.16-.05.34-.07.53-.07.22,0,.42.03.61.08.18.05.36.12.52.2l-.21.53c-.15-.07-.3-.13-.46-.18s-.31-.08-.48-.08c-.23,0-.4.04-.52.12s-.17.19-.17.34c0,.08.01.16.04.22.03.06.07.12.13.18s.15.11.26.17c.11.06.24.12.4.19.16.07.31.14.44.22s.24.15.33.24c.09.09.16.19.21.31s.07.25.07.41Z" fill="#231f20"/><path d="M55.44,109.16v-2.54c0-.31-.06-.54-.18-.7-.12-.16-.31-.23-.56-.23-.18,0-.34.03-.46.09-.12.06-.23.16-.3.28-.08.12-.13.27-.16.45-.03.18-.05.38-.05.61v2.04h-.62v-5.59h.62v1.66l-.03.52h.03c.06-.1.12-.19.2-.27.08-.08.17-.14.26-.19.09-.05.19-.09.3-.11.11-.02.21-.04.32-.04.42,0,.73.11.94.34.21.23.32.59.32,1.1v2.58h-.62Z" fill="#231f20"/><path id="Buttonette-2" d="M88.97,114.77s-3.07-2.28-3.07-8.51,3.07-8.17,3.07-8.17v16.68Z" fill="#e6eaf8" stroke="#fff" stroke-miterlimit="10"/></g><path d="M27.76,49.52c0,.4-.05.77-.14,1.11s-.23.62-.41.86-.41.42-.68.55c-.27.13-.58.19-.93.19-.37,0-.69-.07-.96-.19-.27-.13-.5-.31-.68-.55s-.31-.52-.4-.86-.13-.71-.13-1.11.04-.78.13-1.11c.09-.33.22-.62.4-.85.18-.23.41-.42.68-.54.27-.13.6-.19.97-.19s.66.06.93.19c.27.13.49.31.67.55s.32.52.41.85c.09.33.14.7.14,1.11ZM24.1,49.52c0,.33.03.62.09.89.06.26.15.48.27.67.12.18.28.32.46.42.19.1.41.15.67.15s.48-.05.67-.15c.19-.1.34-.24.46-.42.12-.18.21-.41.27-.67.06-.26.09-.56.09-.89s-.03-.63-.09-.89c-.06-.26-.15-.48-.27-.66-.12-.18-.27-.32-.46-.42-.19-.1-.41-.15-.67-.15s-.48.05-.67.15c-.19.1-.34.24-.47.42-.12.18-.21.4-.27.66s-.09.56-.09.89Z" fill="#fff"/><path d="M28.59,49.79c0-.43.03-.82.08-1.16.06-.34.14-.63.26-.87.12-.24.27-.44.45-.59s.41-.26.66-.32c.28-.06.56-.13.84-.19s.53-.11.76-.16l.11.58c-.11.02-.24.04-.38.07-.14.03-.28.05-.42.08-.14.03-.28.06-.41.09s-.25.06-.35.08c-.14.03-.27.09-.38.17-.11.08-.21.19-.29.32-.08.14-.15.3-.19.5-.05.2-.07.43-.08.7h.04c.04-.07.1-.14.17-.21.07-.07.15-.14.25-.2.1-.06.2-.11.33-.15.12-.04.26-.06.4-.06.23,0,.42.04.59.13.17.09.31.21.43.37.12.16.2.34.26.56.06.22.09.45.09.71,0,.33-.04.62-.12.86s-.19.45-.33.62c-.14.17-.31.29-.51.37-.2.08-.42.12-.65.12s-.46-.05-.66-.16c-.2-.11-.37-.26-.51-.47s-.25-.46-.32-.77-.11-.65-.11-1.04ZM30.24,51.69c.14,0,.26-.02.37-.07.11-.05.21-.12.29-.23.08-.1.14-.24.18-.42.04-.17.06-.38.06-.63,0-.2-.01-.38-.04-.54-.03-.16-.08-.3-.14-.41-.07-.11-.15-.2-.25-.26-.1-.06-.23-.09-.38-.09-.14,0-.27.03-.39.09-.12.06-.23.13-.32.21-.09.08-.17.17-.24.25-.06.09-.11.16-.14.22,0,.24.01.47.04.7.03.22.08.43.15.6.07.18.18.32.31.42.13.11.3.16.5.16Z" fill="#fff"/><path d="M34.26,52.23c-.25,0-.48-.04-.69-.13-.21-.09-.39-.22-.53-.39-.15-.17-.26-.38-.35-.63-.08-.25-.12-.54-.12-.86s.04-.62.11-.87c.08-.26.18-.47.32-.65s.3-.31.49-.41c.19-.09.4-.14.63-.14s.43.04.61.13.33.2.46.36c.13.15.22.34.29.56.07.22.1.46.1.72v.41h-2.36c.01.46.1.8.28,1.02.17.22.43.33.78.33.12,0,.22,0,.32-.02s.19-.03.29-.05c.09-.02.18-.05.27-.09.09-.03.17-.07.26-.12v.58c-.09.05-.18.08-.27.12-.09.03-.18.06-.27.08s-.19.04-.29.05-.21.01-.32.01ZM34.1,48.68c-.26,0-.46.09-.62.28-.15.19-.24.46-.26.82h1.68c0-.16-.02-.31-.05-.45-.03-.14-.08-.25-.14-.35-.06-.1-.15-.17-.25-.22-.1-.05-.22-.08-.36-.08Z" fill="#fff"/><path d="M38.21,52.23c-.13,0-.26-.02-.37-.05s-.21-.07-.3-.12c-.09-.05-.17-.11-.23-.18-.07-.07-.13-.14-.18-.22h-.04c0,.08.01.16.02.23,0,.06,0,.13.01.19,0,.07,0,.12,0,.16v1.69h-.62v-5.71h.51l.09.53h.03c.05-.08.11-.16.18-.24s.14-.14.23-.19c.09-.05.19-.1.3-.13s.23-.05.37-.05c.21,0,.41.04.58.13.18.09.32.22.45.39.12.17.22.38.29.64s.1.55.1.88-.03.63-.1.89-.16.47-.29.64-.27.3-.45.39c-.18.09-.37.13-.58.13ZM38.09,48.68c-.17,0-.32.03-.44.08-.12.05-.22.14-.29.25-.07.11-.13.25-.16.42-.04.17-.06.37-.06.59v.15c0,.24.02.46.05.65.03.19.08.35.16.47.07.13.17.22.3.29.12.07.28.1.46.1.31,0,.53-.13.68-.39.14-.26.22-.64.22-1.12s-.07-.87-.22-1.12c-.14-.25-.37-.37-.68-.37Z" fill="#fff"/><path d="M40.57,47.14c0-.14.03-.25.1-.31.07-.06.16-.1.26-.1.05,0,.1,0,.14.02s.08.04.12.07c.03.03.06.08.08.13.02.05.03.11.03.19,0,.14-.04.24-.11.31-.07.07-.16.1-.26.1s-.19-.03-.26-.1c-.07-.07-.1-.17-.1-.31ZM41.24,52.16h-.62v-3.95h.62v3.95Z" fill="#fff"/><path d="M44.77,48.76h-1.09v3.39h-.62v-3.39h-1.09v-.55h2.8v.55Z" fill="#fff"/><path d="M46.13,49.83h.95c.48,0,.84.09,1.07.28s.35.47.35.84c0,.18-.03.35-.08.5-.05.15-.14.28-.25.38-.12.11-.26.19-.44.24-.18.06-.4.08-.66.08h-1.55v-3.95h.62v1.62ZM46.13,50.38v1.24h.89c.13,0,.24,0,.35-.03.11-.02.2-.06.27-.1.08-.05.14-.11.18-.19s.07-.18.07-.29-.02-.22-.06-.29c-.04-.08-.09-.14-.17-.19-.07-.05-.17-.08-.28-.1-.11-.02-.24-.03-.38-.03h-.87Z" fill="#fff"/><path d="M55.12,52.16h-.55v-3.22s-.03.11-.05.18c-.02.07-.04.14-.06.21-.02.07-.04.14-.06.2-.02.06-.04.12-.05.16l-.9,2.47h-.46l-.91-2.47s-.03-.08-.05-.13-.04-.12-.06-.19c-.02-.07-.04-.14-.07-.22s-.04-.14-.05-.21v3.22h-.55v-3.95h.75l.91,2.5c.03.08.06.16.08.24s.05.16.07.23c.02.07.04.14.06.2.02.06.03.11.04.15.01-.04.03-.09.04-.15s.04-.12.06-.19c.02-.07.04-.14.07-.22.03-.08.05-.16.08-.24l.92-2.52h.74v3.95Z" fill="#fff"/><path d="M59.37,50.18c0,.33-.04.62-.12.88-.08.26-.19.47-.33.64-.14.17-.32.31-.52.4-.2.09-.43.14-.68.14-.23,0-.45-.05-.65-.14s-.37-.22-.51-.4c-.15-.17-.26-.39-.34-.64-.08-.25-.12-.55-.12-.88s.04-.62.11-.87c.08-.25.19-.47.33-.64.14-.17.31-.31.52-.4.2-.09.43-.13.68-.13.24,0,.45.04.65.13s.37.22.51.4c.14.17.26.39.34.64.08.25.12.54.12.87ZM56.75,50.18c0,.5.08.88.23,1.13.16.25.41.38.76.38s.6-.13.76-.38.23-.63.23-1.13-.08-.88-.23-1.12c-.16-.25-.41-.37-.76-.37s-.6.12-.76.37c-.15.25-.23.62-.23,1.12Z" fill="#fff"/><path d="M63.22,49.21c0,.25-.07.44-.21.58s-.33.23-.58.27v.03c.13.02.25.05.36.09s.21.1.29.17c.08.07.14.17.19.27.05.11.07.24.07.39,0,.16-.03.31-.08.45-.05.14-.14.26-.25.36-.12.1-.26.18-.44.24s-.4.09-.66.09h-1.55v-3.95h1.55c.19,0,.36.02.53.05.16.03.3.09.42.17s.21.18.28.31c.07.13.1.29.1.47ZM62.62,49.27c0-.18-.06-.32-.19-.39-.12-.08-.31-.12-.55-.12h-.91v1.07h.81c.14,0,.26,0,.37-.03.1-.02.19-.05.26-.09.07-.04.12-.1.16-.17.04-.07.05-.16.05-.27ZM62.73,50.97c0-.22-.07-.37-.22-.46-.15-.09-.37-.13-.66-.13h-.87v1.24h.89c.13,0,.24-.01.35-.03.11-.02.2-.06.27-.11.08-.05.14-.12.18-.2.04-.08.07-.18.07-.31Z" fill="#fff"/><path d="M63.61,48.21h.65l.73,2.2c.03.1.06.2.1.3.03.11.06.21.09.32s.05.21.07.31.04.19.04.27h.02c.01-.06.03-.14.05-.25.02-.1.05-.21.08-.33.03-.12.06-.23.1-.34.03-.11.06-.21.09-.29l.68-2.2h.64l-1.48,4.46c-.06.19-.13.37-.21.52-.07.15-.16.29-.26.39-.1.11-.21.19-.34.25s-.29.09-.47.09c-.12,0-.22,0-.31-.02-.09-.01-.16-.03-.22-.04v-.52s.11.02.18.03c.07,0,.15.01.23.01.11,0,.2-.01.28-.04.08-.03.15-.07.21-.12.06-.05.11-.12.15-.19.04-.08.08-.16.12-.26l.19-.58-1.42-3.98Z" fill="#fff"/></svg>