<?xml version="1.0" encoding="UTF-8"?>
<svg id="Layer_1" xmlns="http://www.w3.org/2000/svg" version="1.1" viewBox="0 0 32 32">
  <!-- Generator: Adobe Illustrator 29.8.1, SVG Export Plug-In . SVG Version: 2.1.1 Build 2)  -->
  <defs>
    <style>
      .st0 {
        fill: #626a6c;
      }

      .st1 {
        fill: #919664;
      }

      .st2 {
        fill: none;
        stroke: #cdcdcd;
        stroke-miterlimit: 10;
        stroke-width: 1.5px;
      }
    </style>
  </defs>
  <g id="Validator_button">
    <circle class="st0" cx="18.49" cy="16.29" r="5" pointer-events="none"/>
    <circle class="st1" cx="18.49" cy="16.29" r="2.75" pointer-events="none"/>
    <g>
      <circle cx="16.48" cy="11.59" r=".29"/>
      <circle cx="17.82" cy="11.59" r=".29"/>
      <circle cx="19.17" cy="11.59" r=".29"/>
      <circle cx="20.51" cy="11.59" r=".29"/>
      <circle cx="15.13" cy="12.93" r=".29"/>
      <circle cx="16.48" cy="12.93" r=".29"/>
      <circle cx="17.82" cy="12.93" r=".29"/>
      <circle cx="19.17" cy="12.93" r=".29"/>
      <circle cx="20.51" cy="12.93" r=".29"/>
      <circle cx="21.86" cy="12.93" r=".29"/>
      <circle cx="13.79" cy="14.28" r=".29"/>
      <circle cx="15.13" cy="14.28" r=".29"/>
      <circle cx="16.48" cy="14.28" r=".29"/>
      <circle cx="17.82" cy="14.28" r=".29"/>
      <circle cx="19.17" cy="14.28" r=".29"/>
      <circle cx="20.51" cy="14.28" r=".29"/>
      <circle cx="21.86" cy="14.28" r=".29"/>
      <circle cx="23.2" cy="14.28" r=".29"/>
      <circle cx="13.79" cy="15.62" r=".29"/>
      <circle cx="15.13" cy="15.62" r=".29"/>
      <circle cx="16.48" cy="15.62" r=".29"/>
      <circle cx="17.82" cy="15.62" r=".29"/>
      <circle cx="19.17" cy="15.62" r=".29"/>
      <circle cx="20.51" cy="15.62" r=".29"/>
      <circle cx="21.86" cy="15.62" r=".29"/>
      <circle cx="23.2" cy="15.62" r=".29"/>
      <circle cx="13.79" cy="16.97" r=".29"/>
      <circle cx="15.13" cy="16.97" r=".29"/>
      <circle cx="16.48" cy="16.97" r=".29"/>
      <circle cx="17.82" cy="16.97" r=".29"/>
      <circle cx="19.17" cy="16.97" r=".29"/>
      <circle cx="20.51" cy="16.97" r=".29"/>
      <circle cx="21.86" cy="16.97" r=".29"/>
      <circle cx="23.2" cy="16.97" r=".29"/>
      <circle cx="13.79" cy="18.31" r=".29"/>
      <circle cx="15.13" cy="18.31" r=".29"/>
      <circle cx="16.48" cy="18.31" r=".29"/>
      <circle cx="17.82" cy="18.31" r=".29"/>
      <circle cx="19.17" cy="18.31" r=".29"/>
      <circle cx="20.51" cy="18.31" r=".29"/>
      <circle cx="21.86" cy="18.31" r=".29"/>
      <circle cx="23.2" cy="18.31" r=".29"/>
      <circle cx="15.13" cy="19.65" r=".29"/>
      <circle cx="16.48" cy="19.65" r=".29"/>
      <circle cx="17.82" cy="19.65" r=".29"/>
      <circle cx="19.17" cy="19.65" r=".29"/>
      <circle cx="20.51" cy="19.65" r=".29"/>
      <circle cx="21.86" cy="19.65" r=".29"/>
      <circle cx="16.48" cy="21" r=".29"/>
      <circle cx="17.82" cy="21" r=".29"/>
      <circle cx="19.17" cy="21" r=".29"/>
      <circle cx="20.51" cy="21" r=".29"/>
    </g>
    <circle class="st2" cx="18.49" cy="16.29" r="12.5" pointer-events="all"/>
    <line class="st2" x1=".07" y1="16.29" x2="6.07" y2="16.29" pointer-events="none"/>
  </g>
</svg>