<?xml version="1.0" encoding="UTF-8"?>
<svg id="Layer_1" data-name="Layer 1" xmlns="http://www.w3.org/2000/svg" viewBox="0 0 90 150">
  <g id="Successful_entry" data-name="Successful entry">
    <rect id="Bg" x="0" y="-.03" width="90" height="150" fill="#101010"/>
    <g id="Header">
      <path id="Tickmark" d="M34.23,37.73l3.28-3.2c.1-.1.27-.1.37,0l5.3,4.84c.11.1.29.09.39-.03l12.72-15.33c.09-.11.26-.13.37-.04l4.03,3.07c.12.09.14.27.04.39l-16.53,19.32c-.1.12-.27.13-.39.02l-9.58-8.65c-.12-.1-.12-.29,0-.39Z" fill="#6ef000"/>
      <text transform="translate(37.13 63.66) scale(.95 1)" fill="#6ef000" font-family="DroidSans, &apos;Droid Sans&apos;" font-size="8"><tspan x="0" y="0">Вхıд</tspan></text>
      <text transform="translate(23.51 73.9) scale(.95 1)" fill="#fff" font-family="DroidSans, &apos;Droid Sans&apos;" font-size="6.5"><tspan x="0" y="0">зареєстровано</tspan></text>
    </g>
    <g id="Footer">
      <path d="M2,110.03h86c1.1,0,2,.9,2,2v38H0v-38C0,110.93.9,110.03,2,110.03Z" fill="#e8b423"/>
      <g id="Tram">
        <path d="M40.63,150.02l2.2-2.64c0-.06-.4-.17-.49-.21-.52-.23-.85-.64-.99-1.09v-5.83c.03-.76.83-1.43,1.81-1.48,1.08-.06,4.71-.04,5.38,0,.86.05,1.56.6,1.77,1.23-.07,1.92.14,3.93.02,5.85-.03.51-.35,1.02-.92,1.29-.16.08-.35.11-.51.19-.03.01-.04,0-.04.04l2.21,2.66h-1.29l-1.68-1.88h-4.54s-1.62,1.88-1.62,1.88h-1.31ZM43.33,140.33c-.34.02-.71.18-.83.44-.1.24-.11,1.36-.02,1.6.08.21.43.46.71.48.22.02.49,0,.72,0,1.34.04,2.86.08,4.19.03.31-.01.63-.03.85-.21.07-.06.24-.28.26-.35.06-.19.03-1.29-.02-1.5s-.5-.48-.78-.5h-5.09ZM44.19,145.82c0-.37-.39-.68-.87-.68s-.87.3-.87.68.39.68.87.68.87-.3.87-.68ZM49.22,145.82c0-.37-.39-.68-.87-.68s-.87.3-.87.68.39.68.87.68.87-.3.87-.68Z"/>
        <ellipse cx="46.58" cy="138.15" rx=".55" ry=".43"/>
        <ellipse cx="45.1" cy="138.15" rx=".55" ry=".43"/>
      </g>
      <g id="Luggage_man" data-name="Luggage man">
        <path d="M57.73,140.33c-.07.02-.12.05-.18.11-.06.06-.09.11-.11.18-.03.11,0,.23.08.32.02.02.51.53,1.11,1.13l1.08,1.09v3.22s0,3.22,0,3.22l.02.06c.05.14.15.23.29.28.07.02.21.02.28,0,.15-.05.26-.15.31-.3l.02-.05v-1.87s0-1.87,0-1.87h.15v1.87c0,2.09,0,1.9.06,2.01.11.22.42.3.64.17.06-.04.14-.11.17-.17.05-.1.05-.08.05-.64v-.51h1.81v-1.36s0-1.36,0-1.36h-.51v-.22c0-.22,0-.23-.02-.26,0-.02-.03-.04-.04-.05-.05-.04-.09-.05-.25-.05h-.15s0-1.12,0-1.12c0-1.05,0-1.12-.02-1.17-.1-.42-.42-.74-.81-.8-.06,0-.2-.01-.99-.01h-.92l-.84-.86c-.46-.47-.86-.87-.88-.89-.1-.09-.22-.12-.34-.09ZM61.86,144.65v1.22h-.16v-2.45h.16v1.22Z"/>
        <path d="M60.66,140.37c-.3.03-.57.24-.67.52-.06.17-.06.37,0,.54.08.24.3.44.55.5.37.1.74-.08.91-.42.05-.1.07-.17.08-.28.02-.15-.01-.29-.08-.43-.15-.3-.46-.47-.79-.44Z"/>
        <path d="M63.69,147.23v1.36s.21,0,.21,0c.18,0,.22,0,.26-.02.11-.03.19-.12.23-.23l.02-.05v-2.11l-.02-.05c-.05-.13-.15-.22-.28-.25-.02,0-.13,0-.23,0h-.19v1.36Z"/>
      </g>
      <g id="Walking">
        <g>
          <g>
            <path d="M72.53,146.15s.04.03.04.06c.04.12.2.86.18.94l-1.38,2.28c-.09.19-.14.38.07.5.31.18.55-.18.69-.4.35-.51.61-1.11.98-1.6.12.5.4.98.67,1.41.07.12.33.53.42.59.23.15.51-.08.46-.35-.03-.2-.49-.77-.62-.99-.13-.24-.45-1.2-.4-1.43.01-.05.05-.09.06-.14.04-.24-.29-1.63-.38-1.95-.02-.09-.04-.19-.08-.27-.18.01-.41-.03-.58,0-.12.02-.19.17-.24.27-.16.31-.32.95-.55,1.17-.18.18-.75.37-.78.6s.2.25.37.21c.15-.04.7-.35.81-.45.1-.1.19-.3.24-.44Z"/>
            <ellipse cx="72.59" cy="143.81" rx=".83" ry=".83"/>
            <path d="M73.4,144.74l.48,2.21c.27-.06.86-.07.86-.45,0-.22-.22-.78-.29-1.02-.05-.19-.1-.59-.22-.73-.15-.19-.63-.02-.84-.01Z"/>
          </g>
          <g>
            <path d="M75.09,145.87c.08.07.22.08.32.07.22-.02,1.1-.51,1.25-.68s.2-.39.31-.56c.01-.02,0-.04.05-.03l.27,1.33c-.62,1.16-1.41,2.24-2,3.42-.08.21.03.43.23.51.46.19.77-.37.98-.69.44-.68.81-1.42,1.26-2.1.07.17.12.34.18.51.19.48.49.99.76,1.43.13.21.36.61.51.77.31.34.91-.08.69-.51-.38-.68-.89-1.23-1.12-1.99-.12-.39-.21-.83-.28-1.23.08-.15.14-.31.1-.48-.2-.82-.32-1.67-.53-2.49-.03-.12-.05-.35-.2-.37-.13-.02-.55-.02-.68,0-.2.03-.31.3-.38.47-.23.5-.42,1.3-.84,1.64-.23.18-.83.4-.92.64-.04.11-.05.25.04.34Z"/>
            <path d="M78.17,142.76l.64,3.04c.35-.08,1.13-.09,1.21-.55.05-.29-.22-.92-.3-1.23s-.15-.66-.25-.97c-.06-.18-.13-.39-.34-.42-.3-.04-.65.06-.95.12Z"/>
            <ellipse cx="77.09" cy="141.67" rx=".91" ry=".92"/>
          </g>
        </g>
      </g>
      <text transform="translate(25.64 119.47) scale(.95 1)" font-family="DroidSans, &apos;Droid Sans&apos;" font-size="6.5"><tspan x="0" y="0">Дякуємо вам,</tspan><tspan x="-2.58" y="7.8">гарної поїздки!</tspan></text>
    </g>
  </g>
</svg>