<?xml version="1.0" encoding="UTF-8"?>
<svg id="Layer_1" data-name="Layer 1" xmlns="http://www.w3.org/2000/svg" viewBox="0 0 980 750">
  <path d="M421.09,171c1.04,1.66,3.8,1,5.48,1.02,130.52,1.39,283.28,59.06,354.87,173.07,3.84,6.12,13.18,26.09,16.54,29.46,2.53,2.54,10.84,3.64,14.72,5.28,34.21,14.46,51.68,46.23,71.33,75.66,32.57,48.77,62.97,99.03,95.96,147.52v4c-3.1,4.14-7.1,5.83-11.42,1.92-38.45-55.98-72.51-115.87-111.75-171.23-8.94-12.61-19.67-28.79-32.5-37.49-3.67-2.49-18.18-10.55-21.87-11.13-11.41-1.79-41.54-.91-53.97-.1-1.95.13-11.65,1.4-12.25,2.25l-5.04,26.61,82.69,46.33c.91,1.56-3.55,10.95-6.18,10.7-46.55-23.94-91.06-52.61-137.64-76.37-15.09-7.7-24.48-15.9-40.03-2.99-23.92,19.86,6.83,39.87,21.99,53.03,36.62,31.79,80.29,61.81,114.52,95.46,34.58,33.99,22.89,80.8,79.94,101.04,3.76,1.34,17.91,4.24,19.54,5.46,2.41,1.8.25,8.93-.51,11.54-1.01,1.49-2.35.93-3.74.78-24.2-2.69-52.4-22.31-66.58-41.48-2.03-2.74-8.09-14.17-10.49-14.12-13.11,4.99-26.77,8.09-37.7,17.3-10.28,8.66-19.78,19.64-30.51,28.49-80.44,66.36-190.57,97.73-293.94,99.01-1.69.02-4.44-.64-5.48,1.02h-36.99l-37.37-3.12C199.7,732.62,36.44,654.49,3.46,501.2l-3.29-25.2c.38-8.94-.51-18.07,0-27,4.44-77.45,54.91-145.52,115.67-189.81,80.17-58.46,181.89-84.96,280.26-88.19h25-.01ZM779.03,374.99c-47.36-94.68-150.71-150.98-250.95-173.5-134.69-30.27-298.35-9.15-409.39,76.55-132,101.88-136.89,256.47-7.02,362.94,124.58,102.12,325.04,118.8,473.65,65.77,53.56-19.11,104.81-48.56,144.71-89.25-.02-3.61-54.09-22.11-62.18-35.79-9.83-16.63,0-28.84,11.21-40.69-9.07-6.84-25.67-15.85-29.47-27.05-3.98-11.75.46-20.75,7.47-29.96l-88.99-16.51c-5.88-.94-14.25-10.51-14.66-16.13-.12-1.6.6-4.8.83-6.72,1.7-13.74,5.43-29.1,8.14-42.85,3.96-20.08,8.27-47.4,14.75-66.25,3.24-9.42,9.67-15.08,19.41-17.39,21.99,2.79,43.88,6.35,65.7,10.15,13.32,2.32,62.94,9.69,71.3,15.69,11.64,8.36,8.16,20.9,6.5,32.99l39-2.01h-.01ZM719.03,411c2.1-14.32,7.95-30.23,8.99-44.51.29-3.99,1.2-11.26-2.6-13.37-34.75-6.17-70.08-14.24-105.04-18.95-7.98-1.07-18.86-3.39-26.63-1.92-1.54.29-2.29.52-3.01,2.01-1.67,3.47-3.13,12.38-4.2,16.73-5.6,22.71-10.61,46.85-15.18,69.82-1.16,5.86-5.73,23.67-4.92,28.22.24,1.32,1.09,3.07,2.06,4.02,3.24,3.16,33.65,8.34,40.36,9.64,15.99,3.09,32.15,5.44,48.17,8.31.38-1.67-.53-2.03-1.51-2.98-13.42-13.02-42.71-29.74-46.03-48.96-4.98-28.85,23.89-50.88,50.53-40.54l59,32.48h.01ZM673.79,488.21c-5.02.99-13.88,11.27-13.7,16.19.24,6.64,11.61,15.47,16.49,19.57,10.09,8.49,23.25,18.42,34.15,25.84,16.06,10.94,26.14,17.11,46.51,10.88,6.02-1.84,6.49-2.62,1.81-7.21-17.1-16.8-42.32-36.52-61.53-51.46-5.56-4.33-16.92-15.15-23.73-13.81h0ZM687.81,552.18c-7.18,1.76-12.3,13.57-9.99,20.55,2.36,7.13,22.37,15.97,29.55,19.44,6.6,3.19,29.5,14.24,35.32,14.47,4.36.17,35.76-9.91,36.26-12.22-2.11-5.05-4.82-18.65-9.64-21.2-4.89-2.59-20.03,2.67-26.74,2.84-22.75.57-31.66-13.6-48.84-22.23-2.03-1.02-3.44-2.25-5.91-1.65h-.01Z" fill="#91c797"/>
  <path d="M452.82,268.24c18.62-3.17,25.16,14.48,32.12,28.4,48.68,97.32,50.87,214.69,7.61,314.32-4.35,10.01-17.77,39.52-26.54,44.45-12.37,6.95-29.82-5.51-28.88-18.8.52-7.38,12.23-26.19,15.82-34.26,35.87-80.45,40.71-172.53,9.89-255.61-7.42-20-17.81-38.56-25.7-58.33-.27-8.87,6.67-18.65,15.69-20.18h0Z" fill="#91c797"/>
  <path d="M378.86,307.27c3.97-.55,8.52-.35,12.24,1.23,8.1,3.45,18.33,26.38,22.17,34.82,34.5,75.82,34.49,163.43,0,239.35-6.89,15.17-21.58,47.61-42.67,31.32-17.53-13.54,1.41-37.52,7.96-53.03,28.4-67.23,27.08-133.74-1.29-200.64-4.55-10.72-16.33-28.22-13.94-39.6,1.43-6.79,8.85-12.54,15.53-13.46h0Z" fill="#91c797"/>
  <path d="M301.85,346.24c14.31-2.65,20.28,4.69,26.78,15.75,27.42,46.66,33.49,112.31,16.52,163.56-3.72,11.24-18.12,45.72-27.68,51.31-12.11,7.1-30.18-2.84-30.16-16.35.01-6.4,10.29-24.26,13.28-31.53,19.37-47.04,19.05-86.71-.29-133.64-3.59-8.71-12.68-23.27-12.93-32.1-.19-6.68,8.14-15.82,14.49-16.99h0Z" fill="#91c797"/>
  <path d="M232.86,382.24c12.21-1.97,18.9,7.79,24.68,16.84,22.95,35.96,23.81,86.4,2.39,123.22-7.1,12.2-21.55,28.57-36.29,15.69-18.39-16.06,1.61-31.83,7.27-47.72,4.47-12.56,4.75-39.12,1.37-51.92-3.24-12.32-17.42-27.55-16.07-38.76.94-7.79,8.99-16.12,16.65-17.35h0Z" fill="#91c797"/>
  <ellipse cx="101.2" cy="17.36" rx="17.5" ry="17.36" fill="#01b423"/>
  <ellipse cx="301.12" cy="17.36" rx="17.5" ry="17.36" fill="#01b423"/>
  <ellipse cx="501.04" cy="17.36" rx="17.5" ry="17.36" fill="#01b423"/>
  <ellipse cx="700.95" cy="17.36" rx="17.5" ry="17.36" fill="#01b423"/>
</svg>