<?xml version="1.0" encoding="UTF-8"?>
<svg id="Layer_1" data-name="Layer 1" xmlns="http://www.w3.org/2000/svg" xmlns:xlink="http://www.w3.org/1999/xlink" viewBox="0 0 90 150">
  <defs>
    <clipPath id="clippath">
      <path d="M1.71,131.74l86.62.02s1.67-1.32,1.67-2.38V29.25c0-1.39-1.13-2.52-2.52-2.52H2.52C1.13,26.72,0,27.85,0,29.25v100.1C0,130.43,1.71,131.74,1.71,131.74Z" fill="none"/>
    </clipPath>
    <radialGradient id="radial-gradient" cx="45" cy="26.72" fx="45" fy="26.72" r="113.3" gradientUnits="userSpaceOnUse">
      <stop offset="0" stop-color="#3e3e48"/>
      <stop offset=".34" stop-color="#393842"/>
      <stop offset=".76" stop-color="#2c2a32"/>
      <stop offset="1" stop-color="#222027"/>
    </radialGradient>
    <radialGradient id="radial-gradient-2" cx="11.88" cy="70.13" fx="11.88" fy="70.13" r="6.89" gradientUnits="userSpaceOnUse">
      <stop offset="0" stop-color="#1a284c"/>
      <stop offset=".42" stop-color="#172446"/>
      <stop offset=".95" stop-color="#101936"/>
      <stop offset="1" stop-color="#101835"/>
    </radialGradient>
    <linearGradient id="linear-gradient" x1="253.42" y1="50.24" x2="263.54" y2="50.24" gradientTransform="translate(95.2 -96.05) rotate(90) scale(.79 1)" gradientUnits="userSpaceOnUse">
      <stop offset="0" stop-color="#b4f208"/>
      <stop offset="1" stop-color="#b6d433"/>
    </linearGradient>
    <linearGradient id="linear-gradient-2" x1="53.98" y1="93.85" x2="58.97" y2="93.85" gradientTransform="matrix(1,0,0,1,0,0)" xlink:href="#linear-gradient"/>
    <radialGradient id="radial-gradient-3" cx="53.98" cy="92.18" fx="53.98" fy="92.18" r="1.87" gradientUnits="userSpaceOnUse">
      <stop offset="0" stop-color="#202020"/>
      <stop offset="1" stop-color="#161616"/>
    </radialGradient>
  </defs>
  <g id="Ticket_info_screen" data-name="Ticket info screen">
    <rect id="Bg" y="0" width="90" height="150" fill="#101010"/>
    <g id="Gray_BG_clipped" data-name="Gray BG clipped">
      <g clip-path="url(#clippath)">
        <circle cx="45" cy="26.72" r="113.3" fill="url(#radial-gradient)"/>
      </g>
    </g>
    <path id="Buttonette" d="M89.49,21.63s-3.06-2.48-3.06-9.24,3.06-8.88,3.06-8.88v18.13Z" fill="#dc0000" stroke="#dc0000" stroke-miterlimit="10"/>
    <text transform="translate(30.78 16.06) scale(.87 1)" fill="#dc0000" font-family="DroidSans, &apos;Droid Sans&apos;" font-size="7"><tspan x="0" y="0">Скасув</tspan><tspan x="22" y="0" letter-spacing="-.02em">а</tspan><tspan x="25.58" y="0" letter-spacing="0em">ти</tspan></text>
    <g id="Header_group" data-name="Header group">
      <text transform="translate(3.44 54.82) scale(.95 1)" fill="#d4def0" font-family="DroidSans, &apos;Droid Sans&apos;" font-size="7"><tspan x="0" y="0">для ıнформацıї про кви</tspan><tspan x="76.53" y="0" letter-spacing="-.02em">т</tspan><tspan x="79.47" y="0">ок</tspan></text>
      <text transform="translate(2.51 45.76) scale(.95 1)" fill="#72e064" font-family="DroidSans, &apos;Droid Sans&apos;" font-size="8.5"><tspan x="0" y="0">Пıднесıть засıб опл</tspan><tspan x="75.6" y="0" letter-spacing="-.02em">а</tspan><tspan x="79.94" y="0" letter-spacing="0em">ти</tspan></text>
      <g id="LeoCard_logo" data-name="LeoCard logo">
        <rect x="3.54" y="65.08" width="16.68" height="10.09" rx="1" ry="1" fill="url(#radial-gradient-2)" stroke="#111630" stroke-miterlimit="10"/>
        <path d="M4.89,68.55h.54s-.05,2.27-.06,2.43.06.28.17.29.63.01.63.01l-.09.48s-.57.01-.83-.02-.42-.31-.42-.55.06-2.64.06-2.64Z" fill="#fff"/>
        <path d="M6.85,71.07c0,.07.05.17.1.17.06,0,1.07-.01,1.07-.01h0l-.07.51s-.95.02-1.2,0c-.26-.02-.43-.24-.43-.58s-.02-.86.01-1.23c.03-.37.31-.65.5-.65s.65,0,1.02,0c.41,0,.44.3.44.72s0,.71,0,.71h-1.43s-.02-.47-.02-.47h.91s0-.32,0-.35-.07-.09-.12-.09-.61,0-.64,0c-.07,0-.12.05-.12.12,0,.04-.02.81-.02,1.12Z" fill="#fff"/>
        <path d="M9.82,69.3h-.46c-.43,0-.78.35-.78.78v.9c0,.43.35.78.78.78h.46c.43,0,.78-.35.78-.78v-.9c0-.43-.35-.78-.78-.78ZM10.1,70.96c0,.18-.14.32-.32.32h-.37c-.18,0-.32-.14-.32-.32v-.87c0-.18.14-.32.32-.32h.37c.18,0,.32.14.32.32v.87Z" fill="#fff"/>
        <path d="M11.73,71.23c-.15,0-.31-.12-.31-.33v-1.54c0-.16.15-.34.3-.34h.9s.09-.59.09-.59c0,0-.02,0-.03,0h-1.09c-.42,0-.77.37-.77.82v1.76c0,.45.34.82.77.82h1.08v-.6" fill="#fff"/>
        <path d="M15.97,71.82v-1.83c0-.08.06-.14.14-.14h.76l.07-.51s-.01,0-.02,0h-.85c-.33,0-.6.29-.6.64v1.38s0,.44,0,.47" fill="#fff"/>
        <path d="M13.47,69.77l-.09-.55s.91.01,1.19.02.5.29.49.53l-.05,2.05h-1.53c-.22,0-.38-.3-.38-.72s.1-.81.34-.81,1.09,0,1.09,0l-.02.48s-.68,0-.73,0-.2,0-.2.26.16.28.2.28.71,0,.71,0c0,0,.02-1.26.01-1.37,0-.07-.1-.17-.18-.17s-.83,0-.83,0Z" fill="#fff"/>
        <path d="M17.43,71.82c-.27,0-.38-.27-.38-.58v-1.45c0-.25.27-.52.6-.52h.86s-.01.57-.01.57c0,0-.58,0-.69,0s-.23.12-.23.29,0,.77,0,.88.09.29.19.29.63,0,.63,0v-2.76s.55,0,.55,0v3.3" fill="#fff"/>
      </g>
      <g id="Mastercard_logo" data-name="Mastercard logo">
        <rect x="26.93" y="64.44" width="18.46" height="11.16"/>
        <path d="M31.63,74.69v-.72c0-.27-.17-.45-.45-.46-.15,0-.3.04-.4.2-.08-.13-.2-.2-.38-.2-.12,0-.24.04-.34.17v-.14h-.25v1.15h.25v-.64c0-.2.11-.3.28-.3s.25.11.25.3v.64h.25v-.64c0-.2.12-.3.28-.3s.25.11.25.3v.64h.25ZM35.36,73.55h-.41v-.35h-.25v.35h-.23v.23h.23v.52c0,.27.1.42.4.42.11,0,.23-.03.31-.09l-.07-.21c-.07.04-.16.06-.22.06-.12,0-.17-.08-.17-.19v-.52h.41v-.23ZM37.49,73.52c-.14,0-.24.07-.3.17v-.14h-.25v1.15h.25v-.64c0-.19.08-.3.24-.3.05,0,.1,0,.16.03l.08-.24c-.06-.02-.13-.03-.18-.03h0ZM34.27,73.64c-.12-.08-.29-.12-.47-.12-.29,0-.48.14-.48.37,0,.19.14.3.4.34l.12.02c.14.02.2.06.2.12,0,.09-.09.14-.26.14s-.3-.06-.38-.12l-.12.19c.14.1.31.15.5.15.33,0,.52-.16.52-.37,0-.2-.15-.31-.4-.34l-.12-.02c-.11-.01-.19-.04-.19-.11,0-.08.08-.13.22-.13.15,0,.29.06.36.1l.11-.2ZM40.96,73.52c-.14,0-.24.07-.3.17v-.14h-.25v1.15h.25v-.64c0-.19.08-.3.24-.3.05,0,.1,0,.16.03l.08-.24c-.06-.02-.13-.03-.18-.03h0ZM37.75,74.12c0,.35.24.6.61.6.17,0,.29-.04.41-.14l-.12-.2c-.09.07-.19.1-.3.1-.2,0-.35-.15-.35-.37s.15-.36.35-.37c.11,0,.21.04.3.1l.12-.2c-.12-.1-.24-.14-.41-.14-.37,0-.61.25-.61.6h0ZM40.08,74.12v-.57h-.25v.14c-.08-.1-.2-.17-.36-.17-.32,0-.57.25-.57.6s.25.6.57.6c.16,0,.28-.06.36-.17v.14h.25v-.57ZM39.15,74.12c0-.2.13-.37.35-.37s.35.16.35.37-.14.37-.35.37-.35-.17-.35-.37h0ZM36.14,73.52c-.34,0-.57.24-.57.6s.24.6.59.6c.17,0,.33-.04.47-.16l-.12-.18c-.1.08-.22.12-.33.12-.16,0-.31-.07-.34-.28h.85s0-.06,0-.1c0-.36-.22-.6-.54-.6h0ZM36.14,73.74c.16,0,.26.1.29.28h-.6c.03-.17.13-.28.3-.28h0ZM42.4,74.12v-1.03h-.25v.6c-.08-.1-.2-.17-.36-.17-.32,0-.57.25-.57.6s.25.6.57.6c.16,0,.28-.06.36-.17v.14h.25v-.57ZM42.69,74.59s.02,0,.03,0c0,0,.02,0,.02.02,0,0,.01.01.02.02,0,0,0,.02,0,.03s0,.02,0,.03c0,0,0,.02-.02.02,0,0-.01.01-.02.02,0,0-.02,0-.03,0s-.02,0-.03,0c0,0-.02,0-.02-.02,0,0-.01-.01-.02-.02,0,0,0-.02,0-.03s0-.02,0-.03c0,0,0-.02.02-.02,0,0,.01-.01.02-.02s.02,0,.03,0ZM42.69,74.72s.02,0,.02,0c0,0,.01,0,.02-.01,0,0,0-.01.01-.02,0,0,0-.01,0-.02s0-.02,0-.02c0,0,0-.01-.01-.02,0,0-.01,0-.02-.01,0,0-.01,0-.02,0s-.02,0-.02,0c0,0-.01,0-.02.01,0,0,0,.01-.01.02,0,0,0,.01,0,.02s0,.02,0,.02c0,0,0,.01.01.02,0,0,.01,0,.02.01,0,0,.01,0,.02,0ZM42.7,74.63s.02,0,.02,0c0,0,0,0,0,.02,0,0,0,.01,0,.01,0,0,0,0-.02,0l.02.03h-.02l-.02-.03h0v.03h-.01v-.07h.03ZM42.68,74.64v.02h.02s0,0,0,0c0,0,0,0,0,0s0,0,0,0c0,0,0,0,0,0h-.02ZM41.47,74.12c0-.2.13-.37.35-.37s.35.16.35.37-.14.37-.35.37-.35-.17-.35-.37h0ZM33.04,74.12v-.57h-.25v.14c-.08-.1-.2-.17-.36-.17-.32,0-.57.25-.57.6s.25.6.57.6c.16,0,.28-.06.36-.17v.14h.25v-.57ZM32.11,74.12c0-.2.13-.37.35-.37s.35.16.35.37-.14.37-.35.37-.35-.17-.35-.37Z" fill="#fff"/>
        <g>
          <rect x="34.45" y="66.08" width="3.12" height="5.61" fill="#f16122"/>
          <path d="M34.65,68.88c0-1.14.53-2.15,1.36-2.8-.61-.48-1.37-.76-2.2-.76-1.97,0-3.57,1.6-3.57,3.57s1.6,3.57,3.57,3.57c.83,0,1.6-.28,2.2-.76-.83-.65-1.36-1.67-1.36-2.8Z" fill="#e91d25"/>
          <path d="M41.78,68.88c0,1.97-1.6,3.57-3.57,3.57-.83,0-1.6-.28-2.2-.76.83-.65,1.36-1.67,1.36-2.8s-.53-2.15-1.36-2.8c.61-.48,1.37-.76,2.2-.76,1.97,0,3.57,1.6,3.57,3.57Z" fill="#f79e1d"/>
          <path d="M41.44,71.09v-.11h.05v-.02h-.12v.02h.05v.11h.03ZM41.67,71.09v-.14h-.04l-.04.1-.04-.1h-.04v.14h.03v-.1l.04.09h.03l.04-.09v.1h.03Z" fill="#f79e1d"/>
        </g>
      </g>
      <g id="Visa_logo" data-name="Visa logo">
        <path d="M69.67,76.05h-17.47v-11.56h17.47v11.56Z" fill="#fff" fill-rule="evenodd"/>
        <path d="M58.51,72.14l1.13-3.74h1.01l-1.13,3.74h-1.01ZM58.06,68.4l-.91,1.59c-.23.42-.37.63-.43.89h-.01c.02-.33-.03-.74-.03-.97l-.1-1.5h-1.7l-.02.1c.44,0,.7.22.77.67l.33,2.97h1.05l2.12-3.74h-1.06ZM65.93,72.14l-.03-.56h-1.26s-.26.56-.26.56h-1.1l1.99-3.73h1.35l.34,3.73h-1.03,0ZM65.81,69.94c-.01-.28-.02-.65,0-.88h-.01c-.06.19-.33.74-.44,1.02l-.38.82h.89l-.05-.96ZM61.72,72.25c-.71,0-1.19-.23-1.53-.43l.48-.74c.3.17.54.37,1.09.37.18,0,.35-.05.44-.21.14-.24-.03-.37-.43-.6l-.2-.13c-.59-.4-.84-.78-.56-1.44.18-.42.64-.75,1.41-.75.53,0,1.03.23,1.32.45l-.55.65c-.28-.23-.52-.34-.78-.34-.21,0-.38.08-.43.19-.11.21.03.35.34.54l.23.15c.71.45.88.92.7,1.36-.31.76-.91.93-1.54.93h0ZM67.26,68.91h-.04v-.27h.1c.06,0,.1.02.1.08,0,.05-.03.07-.07.07l.07.12h-.05l-.07-.11h-.04v.11h0ZM67.31,68.76s.06,0,.06-.04c0-.03-.03-.04-.06-.04h-.05v.08h.05ZM67.31,69.01c-.14,0-.24-.1-.24-.24,0-.14.11-.24.24-.24s.24.1.24.24-.11.24-.24.24ZM67.31,68.57c-.1,0-.19.08-.19.2,0,.11.07.2.19.2.1,0,.18-.08.18-.2s-.08-.2-.18-.2Z" fill="#1d5b98" fill-rule="evenodd"/>
        <path d="M69.24,73.31h-16.58v2.22h16.58v-2.22h0Z" fill="#e6a738" fill-rule="evenodd"/>
        <path d="M69.2,65.04h-16.58v2.22h16.58v-2.22ZM68.83,75.37h-.04v-.27h.1c.06,0,.1.02.1.08,0,.05-.03.07-.07.07l.07.12h-.05l-.07-.11h-.04v.11h0ZM68.87,75.21s.06,0,.06-.04c0-.03-.03-.04-.06-.04h-.05v.08h.05ZM68.87,75.47c-.14,0-.24-.1-.24-.24,0-.14.11-.24.24-.24s.24.1.24.24-.11.24-.24.24ZM68.87,75.03c-.1,0-.19.08-.19.2,0,.11.07.2.19.2.1,0,.18-.08.18-.2s-.08-.2-.18-.2Z" fill="#1d5b98" fill-rule="evenodd"/>
      </g>
      <g id="QR_icon" data-name="QR icon">
        <g>
          <polygon points="86.28 70.81 86.28 71.91 87.35 71.91 87.35 70.81 88.46 70.81 88.46 74.09 85.17 74.09 85.17 72.99 84.09 72.99 84.09 76.28 82.99 76.28 82.99 70.81 86.28 70.81" fill="#fff"/>
          <rect x="87.35" y="75.17" width="1.11" height="1.11" fill="#fff"/>
          <rect x="85.17" y="75.17" width="1.11" height="1.11" fill="#fff"/>
          <g>
            <path d="M81.88,70.81v5.47h-5.47v-5.47h5.47ZM77.51,71.91v3.26h3.29v-3.26h-3.29Z" fill="#fff"/>
            <rect x="78.59" y="72.99" width="1.11" height="1.11" fill="#fff"/>
          </g>
        </g>
        <g>
          <path d="M88.46,64.26v5.47h-5.47v-5.47h5.47ZM84.09,65.33v3.29h3.26v-3.29h-3.26Z" fill="#fff"/>
          <rect x="85.17" y="66.44" width="1.11" height="1.08" fill="#fff"/>
        </g>
        <g>
          <path d="M81.88,64.26v5.47h-5.47v-5.47h5.47ZM77.51,65.33v3.29h3.29v-3.29h-3.29Z" fill="#fff"/>
          <rect x="78.59" y="66.44" width="1.11" height="1.08" fill="#fff"/>
        </g>
      </g>
    </g>
    <g id="Validator_place_card_artwork" data-name="Validator place card artwork">
      <path d="M57.63,95.42l-.47,11.88s-2.76,4.71-4.98,6.11-5.37,1.29-5.57,1.29-3.47.27-5.61-1.36,15.42-20.33,15.42-20.33l1.21,2.41Z" fill="#fff" stroke="#000" stroke-miterlimit="10" stroke-width=".25"/>
      <path d="M56.42,96.11s-.16,11.02-.43,11.6-1.84,2.58-2.46,2.63.98-15.56.98-15.56l1.91.74v.58Z" fill="#fff" stroke="#000" stroke-miterlimit="10" stroke-width=".25"/>
      <path d="M49.49,89.84s.39-.9.97-1.13,4.44,2.1,4.44,2.1c0,0-.32,1.67-.63,1.75s-4.79-2.73-4.79-2.73Z" fill="#fff" stroke="#000" stroke-miterlimit="10" stroke-width=".25"/>
      <path d="M47.86,89.99s1.09-1.01,1.75-.86,4.52,2.26,4.52,2.26c0,0,1.67,3.43,1.56,4.56s-2.18,14.64-2.18,14.64c0,0-.58,1.75-2.02,1.91s-3.62-22.51-3.62-22.51Z" fill="#fff" stroke="#000" stroke-miterlimit="10" stroke-width=".25"/>
      <path d="M38.63,102.9s.23-5.05,1.32-6.96c0,3.04-.31,7.67-.31,7.67l-1.01-.72Z" fill="#fff" stroke="#000" stroke-miterlimit="10" stroke-width=".25"/>
      <path d="M39.76,103.93l.55-12.54s1.77-1.56,3.11-1.76,2.99-.53,4.62-.11c1.88.49,4.05,1.45,6.13,3.38.74,1.75.39,3.04.39,3.04l-2.45,14.84s-1.13,2.96-3.12,3.15-3.3.25-4.91,0-3.04-1.17-3.19-1.4-1.13-8.61-1.13-8.61Z" fill="#fff" stroke="#000" stroke-miterlimit="10" stroke-width=".25"/>
      <path d="M51.13,97.32s.16-1.01.58-1.21v-1.79s-2.49-2.61-4.79-2.96-4.24-.36-5.41,1.28c0,2.73-1.41,16.32-1.41,16.32,0,0,2.06,2.61,4.21,2.92s4.91.31,5.84-1.21c.15-1.17.19-1.48.19-1.48,0,0-.51-.04-.55-.74s1.33-11.14,1.33-11.14Z" stroke="#000" stroke-miterlimit="10" stroke-width=".25"/>
      <ellipse cx="44.97" cy="108.48" rx="2.45" ry="4.01" transform="translate(-70.17 131.61) rotate(-78.84)" fill="url(#linear-gradient)" stroke="#000" stroke-miterlimit="10" stroke-width=".25"/>
      <rect x="30.42" y="105.35" width="12.85" height="9.43" rx="1.09" ry="1.09" transform="translate(-68.36 61.05) rotate(-46.51)" fill="#007fff" stroke="#fff" stroke-miterlimit="10" stroke-width=".25"/>
      <polyline points="23.27 111.64 27.17 117.5 24.59 119.34 20.73 113.32" fill="#fff"/>
      <path d="M26.9,116.07l-2.96-4.43,5.47-5.17,5.24-1.05-5.18,4.98.12.21s4.81-3.34,5.3-3.39c.08,0,.72.14.95.47s.32.97.21,1.15c-.15.25-5.28,4.15-5.28,4.15,0,0,.68.55.7.93s-.7,1.05-1.23,1.46-2.43.72-3.35.68Z" fill="#fff"/>
      <circle cx="38.82" cy="108.16" r="1.48" fill="#fff"/>
      <rect x="53.98" y="91.64" width="4.98" height="4.41" rx="1.18" ry="1.18" fill="url(#linear-gradient-2)" stroke="#000" stroke-miterlimit="10" stroke-width=".25"/>
      <circle cx="53.98" cy="92.18" r="1.87" fill="url(#radial-gradient-3)" stroke="#000" stroke-miterlimit="10" stroke-width=".25"/>
    </g>
    <polygon id="Payment_dir_arrow" data-name="Payment dir arrow" points="37.17 131.76 52.68 131.76 44.93 139.28 37.17 131.76" fill="#72e064"/>
  </g>
</svg>