<?xml version="1.0" encoding="UTF-8"?><svg id="Layer_1" xmlns="http://www.w3.org/2000/svg" xmlns:xlink="http://www.w3.org/1999/xlink" viewBox="0 0 90 150"><defs><clipPath id="clippath"><path d="M1.71,131.74l86.62.02s1.67-1.32,1.67-2.38V29.25c0-1.39-1.13-2.52-2.52-2.52H2.52c-1.39-.01-2.52,1.12-2.52,2.52v100.1c0,1.08,1.71,2.39,1.71,2.39Z" fill="none"/></clipPath><radialGradient id="radial-gradient" cx="45" cy="123.28" fx="45" fy="123.28" r="113.3" gradientTransform="translate(0 150) scale(1 -1)" gradientUnits="userSpaceOnUse"><stop offset="0" stop-color="#3e3e48"/><stop offset=".34" stop-color="#393842"/><stop offset=".76" stop-color="#2c2a32"/><stop offset="1" stop-color="#222027"/></radialGradient><radialGradient id="radial-gradient-2" cx="13.03" cy="69.93" fx="13.03" fy="69.93" r="7.62" gradientUnits="userSpaceOnUse"><stop offset="0" stop-color="#1a3c68"/><stop offset=".44" stop-color="#183662"/><stop offset="1" stop-color="#142853"/></radialGradient><linearGradient id="linear-gradient" x1="231.95" y1="93.04" x2="242.07" y2="93.04" gradientTransform="translate(-48.08 -79.08) rotate(90) scale(.79 -1)" gradientUnits="userSpaceOnUse"><stop offset="0" stop-color="#b4f208"/><stop offset="1" stop-color="#b6d433"/></linearGradient><linearGradient id="linear-gradient-2" x1="53.98" y1="56.15" x2="58.97" y2="56.15" gradientTransform="translate(0 150) scale(1 -1)" gradientUnits="userSpaceOnUse"><stop offset="0" stop-color="#b4f208"/><stop offset="1" stop-color="#b6d433"/></linearGradient><radialGradient id="radial-gradient-3" cx="53.98" cy="57.82" fx="53.98" fy="57.82" r="1.87" gradientTransform="translate(0 150) scale(1 -1)" gradientUnits="userSpaceOnUse"><stop offset="0" stop-color="#202020"/><stop offset="1" stop-color="#161616"/></radialGradient></defs><g id="Ticket_info_screen"><rect id="Bg" width="90" height="150" fill="#101010"/><g id="Gray_BG_clipped"><g clip-path="url(#clippath)"><circle cx="45" cy="26.72" r="113.3" fill="url(#radial-gradient)"/></g></g><path id="Buttonette" d="M89.49,21.63s-3.06-2.48-3.06-9.24,3.06-8.88,3.06-8.88v18.12Z" fill="#dc0000" stroke="#dc0000" stroke-miterlimit="10"/><g isolation="isolate"><g isolation="isolate"><path d="M33.14,11.55c-.21,0-.4.05-.58.14-.17.09-.32.23-.44.4s-.22.38-.28.63-.1.53-.1.84.03.61.09.86c.06.25.15.46.26.63s.26.3.44.39c.17.09.38.13.61.13.18,0,.34-.02.5-.06.16-.04.32-.09.47-.14v.55c-.08.03-.15.06-.23.09-.08.03-.16.05-.24.06-.08.02-.17.03-.27.04-.1,0-.2.01-.32.01-.33,0-.61-.06-.84-.18-.24-.12-.44-.3-.59-.52s-.27-.5-.35-.81-.11-.67-.11-1.05.04-.72.13-1.04.21-.58.38-.81c.17-.23.38-.4.62-.53s.53-.19.85-.19c.21,0,.42.02.61.08s.37.12.53.22l-.23.53c-.12-.07-.26-.14-.41-.19s-.31-.08-.5-.08Z" fill="#dc0000"/><path d="M36.72,12.31h.58l-1.23,1.8,1.35,1.95h-.61l-1.3-1.9v1.9h-.54v-3.75h.54v1.82l1.21-1.82Z" fill="#dc0000"/><path d="M39.8,16.06l-.11-.52h-.02c-.07.1-.13.19-.2.26-.07.07-.14.14-.21.18-.08.05-.16.08-.26.11-.1.02-.21.03-.33.03-.14,0-.26-.02-.38-.07-.12-.04-.21-.11-.3-.21-.08-.09-.15-.21-.2-.35-.05-.14-.07-.31-.07-.5,0-.37.11-.66.34-.86.23-.2.58-.31,1.04-.33l.55-.02v-.24c0-.15-.01-.28-.04-.38-.03-.1-.07-.19-.12-.25-.05-.06-.12-.11-.2-.14-.08-.03-.17-.04-.27-.04-.17,0-.32.03-.46.08s-.28.12-.41.2l-.19-.47c.15-.09.31-.17.49-.23s.37-.1.57-.1.38.02.52.07c.15.05.27.12.37.22.1.1.17.23.21.39.05.16.07.35.07.57v2.57h-.39ZM38.81,15.63c.12,0,.23-.02.34-.06.1-.04.19-.11.27-.2.08-.09.13-.2.18-.33.04-.13.06-.29.06-.47v-.34l-.42.02c-.18,0-.33.03-.45.07s-.22.09-.29.15c-.07.06-.12.14-.16.24-.03.09-.05.2-.05.31,0,.21.05.36.14.46.1.1.22.15.38.15Z" fill="#dc0000"/><path d="M42.44,16.13c-.2,0-.39-.04-.56-.11-.17-.07-.33-.19-.46-.34-.13-.16-.23-.36-.3-.6-.07-.24-.11-.53-.11-.88s.04-.66.11-.91c.08-.25.18-.45.31-.61.13-.16.29-.27.46-.34.18-.07.37-.11.57-.11.15,0,.31.02.45.06.15.04.27.09.37.14l-.16.53s-.1-.04-.15-.07c-.06-.02-.11-.04-.17-.06-.06-.02-.12-.03-.17-.04-.06-.01-.11-.02-.16-.02-.31,0-.54.11-.68.34-.14.23-.21.58-.21,1.07s.07.83.21,1.05c.14.22.36.33.66.33.16,0,.31-.02.44-.06.13-.04.25-.09.36-.15v.55c-.11.07-.22.12-.34.15-.12.03-.27.05-.45.05Z" fill="#dc0000"/><path d="M43.52,12.31h.56l.64,2.1c.03.09.06.19.08.29.03.1.06.2.08.3.02.1.05.2.06.29s.03.18.04.26h.02c0-.06.03-.13.05-.23.02-.1.05-.2.07-.31.03-.11.05-.22.08-.33.03-.11.05-.2.08-.27l.59-2.09h.56l-1.29,4.24c-.06.19-.12.35-.18.5-.06.15-.14.27-.22.37s-.19.18-.3.24c-.11.06-.25.08-.41.08-.1,0-.19,0-.27-.02s-.14-.03-.19-.04v-.5s.09.02.16.03.13.01.2.01c.09,0,.18-.01.25-.04s.13-.06.18-.11c.05-.05.1-.11.13-.19.04-.07.07-.16.1-.25l.17-.55-1.24-3.79Z" fill="#dc0000"/><path d="M49.49,13.25c0,.24-.06.42-.18.56-.12.13-.29.22-.5.26v.02c.11.02.21.04.31.09.1.04.18.1.25.17.07.07.13.16.17.26.04.1.06.23.06.37,0,.15-.02.29-.07.43-.05.13-.12.25-.22.35-.1.1-.23.17-.39.23-.16.05-.35.08-.57.08h-1.35v-3.75h1.35c.17,0,.32.02.46.05s.26.08.36.16c.1.07.18.17.24.29.06.12.09.27.09.45ZM48.97,13.31c0-.18-.05-.3-.16-.37-.11-.07-.27-.11-.48-.11h-.79v1.02h.7c.12,0,.23,0,.32-.03.09-.02.17-.05.23-.09.06-.04.11-.1.14-.16.03-.07.05-.15.05-.26ZM49.06,14.93c0-.21-.06-.36-.19-.44s-.32-.12-.57-.12h-.76v1.18h.77c.11,0,.21-.01.3-.03.09-.02.17-.05.24-.1s.12-.11.16-.19c.04-.08.06-.18.06-.29Z" fill="#dc0000"/></g><g isolation="isolate"><path d="M52.28,16.06l-.11-.52h-.02c-.07.1-.13.19-.2.26-.07.07-.14.14-.21.18-.08.05-.16.08-.26.11-.1.02-.21.03-.33.03-.14,0-.26-.02-.38-.07-.12-.04-.21-.11-.3-.21-.08-.09-.15-.21-.2-.35-.05-.14-.07-.31-.07-.5,0-.37.11-.66.34-.86.23-.2.58-.31,1.04-.33l.55-.02v-.24c0-.15-.01-.28-.04-.38-.03-.1-.07-.19-.12-.25-.05-.06-.12-.11-.2-.14-.08-.03-.17-.04-.27-.04-.17,0-.32.03-.46.08s-.28.12-.41.2l-.19-.47c.15-.09.31-.17.49-.23s.37-.1.57-.1.38.02.52.07c.15.05.27.12.37.22.1.1.17.23.21.39.05.16.07.35.07.57v2.57h-.39ZM51.29,15.63c.12,0,.23-.02.34-.06.1-.04.19-.11.27-.2.08-.09.13-.2.18-.33.04-.13.06-.29.06-.47v-.34l-.42.02c-.18,0-.33.03-.45.07s-.22.09-.29.15c-.07.06-.12.14-.16.24-.03.09-.05.2-.05.31,0,.21.05.36.14.46.1.1.22.15.38.15Z" fill="#dc0000"/></g><g isolation="isolate"><path d="M55.6,12.83h-.95v3.23h-.54v-3.23h-.95v-.53h2.44v.53Z" fill="#dc0000"/><path d="M56.75,12.31v2.28l-.04.86,1.53-3.14h.69v3.75h-.51v-2.21l.03-.93-1.53,3.14h-.7v-3.75h.51Z" fill="#dc0000"/></g></g><g id="Header_group"><g isolation="isolate"><g isolation="isolate"><path d="M6.94,56.12h-.56v-1.3h-2.24v1.3h-.56v-1.83h.28c.14-.22.26-.45.37-.71s.2-.52.27-.8c.07-.28.13-.56.16-.85.04-.29.06-.58.06-.87h1.74v3.23h.49v1.83ZM5.86,54.29v-2.75h-.62c-.02.23-.04.47-.08.72s-.09.49-.15.72c-.06.24-.14.47-.23.69-.09.22-.19.43-.3.62h1.38Z" fill="#d4def0"/><path d="M10.14,54.82h-.59v-3.23h-.84c-.04.59-.1,1.09-.17,1.51-.07.41-.16.75-.26,1.01-.1.26-.22.45-.37.57-.14.12-.3.18-.49.18-.06,0-.12,0-.17-.01-.05,0-.1-.02-.13-.03v-.45s.1.02.16.02c.12,0,.23-.07.32-.2.1-.13.18-.34.26-.61s.14-.62.19-1.04.1-.91.14-1.48h1.94v3.75Z" fill="#d4def0"/><path d="M11.46,54.82h-.64l.94-1.58c-.1-.03-.19-.07-.28-.12-.09-.05-.17-.12-.24-.21-.07-.09-.13-.19-.17-.31-.04-.12-.06-.27-.06-.43,0-.18.03-.34.09-.47s.15-.25.25-.34c.11-.09.24-.16.39-.21.15-.05.31-.07.49-.07h1.44v3.75h-.59v-1.48h-.79l-.83,1.48ZM11.57,52.18c0,.11.02.2.06.28.04.08.1.15.17.2.07.05.15.09.25.12.1.03.2.04.32.04h.71v-1.22h-.82c-.23,0-.4.05-.52.16-.11.11-.17.25-.17.43Z" fill="#d4def0"/><path d="M17.12,54.82h-.59v-3.75h.59v3.75Z" fill="#d4def0"/><path d="M18.84,51.07v1.56h1.77v-1.56h.59v3.75h-.59v-1.67h-1.77v1.67h-.59v-3.75h.59Z" fill="#d4def0"/><path d="M24.37,51.01c.25.03.47.09.67.19.21.1.38.23.53.39.15.16.26.36.34.58.08.22.12.48.12.77s-.04.54-.12.77c-.08.23-.19.42-.33.59-.15.17-.32.3-.53.39-.21.1-.44.16-.7.18v1.63h-.55v-1.63c-.25-.02-.47-.08-.68-.18-.21-.1-.38-.23-.53-.39s-.26-.36-.35-.59c-.08-.23-.12-.49-.12-.77s.04-.54.12-.77c.08-.23.19-.42.33-.58.14-.16.32-.29.53-.39s.44-.16.71-.18v-1.51h.55v1.51ZM22.74,52.94c0,.43.08.76.25,1,.17.24.44.38.82.42v-2.83c-.19.02-.35.07-.49.13-.14.07-.25.16-.33.28-.09.12-.15.26-.19.42s-.06.35-.06.57ZM25.42,52.94c0-.42-.08-.75-.25-.98s-.44-.37-.8-.42v2.82c.37-.05.64-.19.81-.43.17-.24.25-.57.25-1Z" fill="#d4def0"/><path d="M29.87,52.94c0,.31-.04.59-.11.83-.07.24-.18.45-.31.61-.14.17-.3.29-.49.38s-.41.13-.65.13c-.22,0-.43-.04-.62-.13s-.35-.21-.49-.38-.25-.37-.32-.61c-.08-.24-.12-.52-.12-.83s.04-.59.11-.83.18-.44.31-.61c.13-.17.3-.29.49-.38.19-.08.41-.13.65-.13.22,0,.43.04.62.13.19.09.35.21.49.38s.25.37.32.61c.08.24.12.52.12.83ZM27.38,52.94c0,.48.07.83.22,1.07.15.24.39.36.72.36s.57-.12.72-.36.22-.6.22-1.07-.07-.83-.22-1.07c-.15-.24-.39-.35-.72-.35s-.57.12-.72.35c-.15.24-.22.59-.22,1.07Z" fill="#d4def0"/><path d="M32.41,54.89c-.13,0-.24-.01-.35-.04-.1-.03-.2-.07-.28-.12-.08-.05-.16-.11-.22-.17-.06-.07-.12-.14-.17-.21h-.04c0,.08.01.15.02.22,0,.06,0,.12.01.18s0,.11,0,.15v1.6h-.59v-5.43h.48l.08.51h.03c.05-.08.11-.15.17-.22.06-.07.14-.13.22-.18.08-.05.18-.09.28-.12.1-.03.22-.05.35-.05.2,0,.39.04.55.12.17.08.31.2.43.37.12.16.21.37.27.61.06.24.1.52.1.84s-.03.6-.1.85c-.07.24-.16.45-.27.61-.12.16-.26.29-.43.37-.17.08-.35.12-.55.12ZM32.3,51.52c-.16,0-.3.03-.42.08s-.21.13-.28.24-.12.24-.16.4c-.03.16-.05.35-.06.56v.14c0,.23.01.43.04.61s.08.33.15.45c.07.12.16.21.28.28s.26.09.44.09c.29,0,.51-.12.64-.37s.21-.61.21-1.07-.07-.83-.21-1.06-.35-.35-.65-.35Z" fill="#d4def0"/><path d="M38.34,54.82h-.52v-3.07s-.03.1-.05.17c-.02.06-.04.13-.06.2s-.04.13-.06.19c-.02.06-.04.11-.05.15l-.86,2.35h-.44l-.86-2.35s-.03-.07-.04-.13-.04-.12-.06-.18c-.02-.07-.04-.14-.06-.21s-.04-.14-.05-.2v3.07h-.53v-3.75h.72l.87,2.38c.03.08.05.16.08.23s.05.15.07.22.04.13.06.19c.02.06.03.1.04.14.01-.04.03-.09.04-.14.02-.06.03-.12.05-.18s.04-.14.07-.21.05-.15.08-.22l.88-2.4h.7v3.75Z" fill="#d4def0"/><path d="M41.48,54.82l-.12-.52h-.03c-.07.1-.14.19-.21.26-.07.07-.15.14-.23.18-.08.05-.18.08-.28.11s-.22.03-.36.03c-.15,0-.29-.02-.41-.07-.13-.04-.23-.11-.33-.21-.09-.09-.16-.21-.22-.35-.05-.14-.08-.31-.08-.5,0-.37.12-.66.38-.86.25-.2.63-.31,1.14-.33l.6-.02v-.24c0-.15-.02-.28-.05-.38-.03-.1-.08-.19-.14-.25s-.13-.11-.22-.13-.19-.04-.3-.04c-.18,0-.35.03-.5.08-.16.05-.3.12-.45.2l-.21-.47c.16-.09.34-.17.54-.23.2-.06.4-.1.62-.1s.41.02.57.07c.16.05.29.12.4.22.11.1.18.23.24.39.05.16.08.35.08.57v2.57h-.42ZM40.4,54.39c.13,0,.25-.02.37-.07s.21-.11.29-.2.15-.2.19-.33c.05-.13.07-.29.07-.47v-.34l-.46.02c-.19,0-.36.03-.49.07s-.24.09-.32.15c-.08.06-.14.14-.17.24-.03.09-.05.2-.05.31,0,.21.05.36.16.46.11.1.24.15.41.15Z" fill="#d4def0"/><path d="M46.34,56.12h-.59v-1.3h-2.75v-3.75h.59v3.23h1.64v-3.23h.59v3.23h.52v1.83Z" fill="#d4def0"/><path d="M47.6,54.82h-.59v-3.75h.59v3.75Z" fill="#d4def0"/><path d="M48.1,50.05c0-.12.03-.21.09-.27s.13-.08.22-.08.16.03.22.08c.06.06.09.14.09.27s-.03.21-.09.27c-.06.06-.14.09-.22.09s-.16-.03-.22-.09c-.06-.06-.09-.15-.09-.27ZM49.32,54.82h-.59v-3.75h.59v3.75ZM49.32,50.05c0-.12.03-.21.09-.27s.13-.08.22-.08c.04,0,.08,0,.12.02.04.01.07.03.1.06s.05.06.07.11c.02.04.03.1.03.16,0,.12-.03.21-.09.27-.06.06-.14.09-.22.09s-.16-.03-.22-.09c-.06-.06-.09-.15-.09-.27Z" fill="#d4def0"/><path d="M52.77,54.82h-.59v-3.75h2.82v3.75h-.59v-3.23h-1.64v3.23Z" fill="#d4def0"/><path d="M57.74,54.89c-.13,0-.24-.01-.35-.04-.1-.03-.2-.07-.28-.12-.08-.05-.16-.11-.22-.17-.06-.07-.12-.14-.17-.21h-.04c0,.08.01.15.02.22,0,.06,0,.12.01.18s0,.11,0,.15v1.6h-.59v-5.43h.48l.08.51h.03c.05-.08.11-.15.17-.22.06-.07.14-.13.22-.18.08-.05.18-.09.28-.12.1-.03.22-.05.35-.05.2,0,.39.04.55.12.17.08.31.2.43.37.12.16.21.37.27.61.06.24.1.52.1.84s-.03.6-.1.85c-.07.24-.16.45-.27.61-.12.16-.26.29-.43.37-.17.08-.35.12-.55.12ZM57.62,51.52c-.16,0-.3.03-.42.08s-.21.13-.28.24-.12.24-.16.4c-.03.16-.05.35-.06.56v.14c0,.23.01.43.04.61s.08.33.15.45c.07.12.16.21.28.28s.26.09.44.09c.29,0,.51-.12.64-.37s.21-.61.21-1.07-.07-.83-.21-1.06-.35-.35-.65-.35Z" fill="#d4def0"/><path d="M62.93,52.94c0,.31-.04.59-.11.83-.07.24-.18.45-.31.61-.14.17-.3.29-.49.38s-.41.13-.65.13c-.22,0-.43-.04-.62-.13s-.35-.21-.49-.38-.25-.37-.32-.61c-.08-.24-.12-.52-.12-.83s.04-.59.11-.83.18-.44.31-.61c.13-.17.3-.29.49-.38.19-.08.41-.13.65-.13.22,0,.43.04.62.13.19.09.35.21.49.38s.25.37.32.61c.08.24.12.52.12.83ZM60.44,52.94c0,.48.07.83.22,1.07.15.24.39.36.72.36s.57-.12.72-.36.22-.6.22-1.07-.07-.83-.22-1.07c-.15-.24-.39-.35-.72-.35s-.57.12-.72.35c-.15.24-.22.59-.22,1.07Z" fill="#d4def0"/><path d="M67.5,51.07h.64l-1.35,1.8,1.47,1.95h-.67l-1.42-1.9v1.9h-.58v-3.75h.58v1.82l1.33-1.82Z" fill="#d4def0"/><path d="M71.58,52.01c0,.24-.07.42-.2.56-.13.13-.32.22-.55.26v.02c.12.02.23.04.34.08.11.04.2.1.27.17.08.07.14.16.18.26.04.1.07.23.07.37,0,.15-.03.3-.08.43s-.13.25-.24.35c-.11.1-.25.17-.42.23-.17.05-.38.08-.62.08h-1.48v-3.75h1.47c.18,0,.35.02.5.05.15.03.29.08.4.16s.2.17.26.29c.06.12.1.27.1.45ZM71.02,52.08c0-.18-.06-.3-.18-.37s-.29-.11-.53-.11h-.87v1.02h.77c.13,0,.25,0,.35-.03.1-.02.18-.05.25-.09s.12-.1.15-.16c.03-.07.05-.15.05-.26ZM71.12,53.69c0-.21-.07-.36-.21-.44s-.35-.12-.63-.12h-.83v1.18h.84c.12,0,.23-.01.33-.03.1-.02.19-.05.26-.1.07-.05.13-.11.17-.19.04-.08.06-.18.06-.29Z" fill="#d4def0"/><path d="M73.18,51.07v2.28l-.04.86,1.67-3.14h.76v3.75h-.56v-2.21l.04-.93-1.67,3.14h-.76v-3.75h.56Z" fill="#d4def0"/></g><g isolation="isolate"><path d="M78.94,51.59h-1.04v3.23h-.59v-3.23h-1.04v-.53h2.67v.53Z" fill="#d4def0"/></g><g isolation="isolate"><path d="M82.41,52.94c0,.31-.04.59-.11.83-.07.24-.18.45-.31.61-.14.17-.3.29-.49.38s-.41.13-.65.13c-.22,0-.43-.04-.62-.13s-.35-.21-.49-.38-.25-.37-.32-.61c-.08-.24-.12-.52-.12-.83s.04-.59.11-.83.18-.44.31-.61c.13-.17.3-.29.49-.38.19-.08.41-.13.65-.13.22,0,.43.04.62.13.19.09.35.21.49.38s.25.37.32.61c.08.24.12.52.12.83ZM79.91,52.94c0,.48.07.83.22,1.07.15.24.39.36.72.36s.57-.12.72-.36.22-.6.22-1.07-.07-.83-.22-1.07c-.15-.24-.39-.35-.72-.35s-.57.12-.72.35c-.15.24-.22.59-.22,1.07Z" fill="#d4def0"/><path d="M85.25,51.07h.64l-1.35,1.8,1.47,1.95h-.67l-1.42-1.9v1.9h-.58v-3.75h.58v1.82l1.33-1.82Z" fill="#d4def0"/></g></g><g isolation="isolate"><g isolation="isolate"><path d="M7.31,45.76h-.74v-5.39h-2.54v5.39h-.73v-6.07h4.01v6.07Z" fill="#72e064"/><path d="M9.49,45.76h-.72v-4.56h.72v4.56Z" fill="#72e064"/><path d="M14.43,47.34h-.69v-1.58h-2.72v1.58h-.69v-2.22h.34c.17-.26.32-.55.45-.86.13-.31.24-.63.33-.97.09-.34.15-.68.2-1.04.04-.35.07-.71.07-1.06h2.11v3.92h.6v2.22ZM13.12,45.12v-3.34h-.76c-.02.29-.05.58-.1.87-.05.3-.11.59-.19.88s-.17.57-.27.84c-.11.27-.23.52-.36.75h1.68Z" fill="#72e064"/><path d="M16,41.2v1.89h2.15v-1.89h.72v4.56h-.72v-2.03h-2.15v2.03h-.72v-4.56h.72Z" fill="#72e064"/><path d="M21.95,45.84c-.29,0-.55-.05-.79-.15s-.44-.25-.62-.45c-.17-.2-.31-.44-.4-.73-.09-.29-.14-.62-.14-1s.04-.71.13-1.01c.09-.3.21-.55.37-.75.16-.21.35-.36.57-.47.22-.11.46-.16.73-.16s.49.05.7.15c.21.1.38.24.53.42.14.18.26.39.33.64.08.25.12.53.12.83v.47h-2.73c.01.53.12.93.32,1.18.2.25.5.38.9.38.13,0,.26,0,.37-.02.12-.01.23-.03.33-.06s.21-.06.31-.1c.1-.04.2-.08.3-.13v.67c-.1.05-.21.1-.31.14-.1.04-.2.07-.31.1-.11.02-.22.04-.33.05s-.24.02-.37.02ZM21.77,41.75c-.3,0-.54.11-.71.32s-.28.53-.31.94h1.94c0-.19-.02-.36-.05-.52-.04-.16-.09-.29-.17-.4-.08-.11-.17-.2-.29-.26-.12-.06-.25-.09-.42-.09Z" fill="#72e064"/><path d="M26.21,45.84c-.27,0-.51-.04-.75-.13s-.43-.23-.6-.42-.3-.43-.4-.73c-.1-.29-.15-.65-.15-1.06s.05-.8.15-1.11c.1-.3.24-.55.41-.74s.38-.33.61-.41c.23-.09.49-.13.75-.13.21,0,.41.02.6.07.2.05.36.1.49.17l-.21.64c-.06-.03-.13-.05-.2-.08s-.15-.05-.23-.07c-.08-.02-.16-.04-.23-.05-.08-.01-.15-.02-.22-.02-.41,0-.71.14-.9.42-.19.28-.28.71-.28,1.3s.1,1.01.29,1.28.48.4.87.4c.21,0,.41-.03.58-.08.17-.05.33-.11.47-.18v.67c-.14.08-.29.14-.46.18-.16.04-.36.06-.59.06Z" fill="#72e064"/><path d="M29.01,45.76h-.72v-4.56h.72v4.56Z" fill="#72e064"/><path d="M33.1,41.84h-1.26v3.92h-.72v-3.92h-1.26v-.64h3.24v.64Z" fill="#72e064"/><path d="M34.66,43.07h1.09c.56,0,.97.11,1.24.32.27.22.4.54.4.97,0,.21-.03.41-.09.58-.06.17-.16.32-.29.44-.13.12-.3.22-.51.28-.21.07-.46.1-.76.1h-1.79v-4.56h.72v1.87ZM34.66,43.71v1.43h1.03c.15,0,.28-.01.4-.04s.23-.06.32-.12.16-.13.21-.22c.05-.09.08-.2.08-.34s-.02-.25-.07-.34-.11-.17-.19-.22c-.08-.06-.19-.09-.32-.12s-.27-.04-.44-.04h-1.01Z" fill="#72e064"/><path d="M41.39,43.07c.16,0,.31-.01.44-.04s.24-.06.34-.12.17-.12.22-.21c.05-.09.08-.2.08-.32,0-.21-.08-.37-.23-.48s-.37-.16-.65-.16c-.19,0-.37.03-.53.08-.17.05-.35.13-.55.22l-.25-.61c.11-.06.21-.1.31-.14s.21-.07.31-.1.22-.05.34-.06c.12-.01.25-.02.39-.02.23,0,.43.03.62.08s.35.13.49.23c.14.1.25.23.32.38.08.15.12.32.12.52,0,.14-.02.26-.06.37s-.09.2-.16.28c-.07.08-.15.15-.24.21s-.19.1-.31.14v.04c.12.04.23.09.34.15.11.06.2.14.29.23s.15.2.2.32c.05.12.08.27.08.44,0,.19-.04.36-.1.52-.07.16-.18.3-.32.42s-.32.21-.54.28c-.22.07-.48.1-.77.1s-.54-.02-.77-.07c-.23-.05-.42-.12-.57-.21v-.69c.08.04.17.09.27.13s.21.08.32.11.24.06.36.08c.13.02.26.03.39.03.14,0,.28-.01.41-.04.13-.03.24-.07.33-.12.09-.06.17-.13.22-.23.05-.1.08-.21.08-.35,0-.26-.09-.45-.26-.58s-.44-.19-.81-.19h-.51v-.63h.38Z" fill="#72e064"/><path d="M46.78,45.76l-.15-.63h-.03c-.09.12-.17.23-.26.32-.09.09-.18.16-.28.22-.1.06-.22.1-.34.13-.13.03-.27.04-.44.04-.18,0-.35-.03-.5-.08s-.29-.14-.4-.25c-.11-.11-.2-.25-.26-.42-.06-.17-.09-.37-.09-.6,0-.45.15-.8.46-1.05.3-.24.77-.38,1.39-.4l.73-.03v-.29c0-.19-.02-.34-.06-.46-.04-.12-.09-.22-.17-.3s-.16-.13-.27-.16-.23-.05-.36-.05c-.22,0-.42.03-.61.1s-.37.15-.54.24l-.25-.57c.2-.11.41-.2.65-.28.24-.08.49-.12.75-.12s.5.03.7.09c.2.06.36.15.49.27s.22.28.29.47c.06.19.09.42.09.69v3.12h-.52ZM45.46,45.23c.16,0,.31-.03.45-.08.14-.05.25-.13.36-.24.1-.11.18-.24.23-.4s.08-.35.08-.57v-.41l-.56.03c-.24.01-.43.04-.59.08-.16.04-.29.11-.38.19-.1.08-.17.17-.21.29s-.06.24-.06.38c0,.25.06.44.19.56.13.12.3.18.5.18Z" fill="#72e064"/><path d="M50.28,45.84c-.27,0-.51-.04-.75-.13s-.43-.23-.6-.42-.3-.43-.4-.73c-.1-.29-.15-.65-.15-1.06s.05-.8.15-1.11c.1-.3.24-.55.41-.74s.38-.33.61-.41c.23-.09.49-.13.75-.13.21,0,.41.02.6.07.2.05.36.1.49.17l-.21.64c-.06-.03-.13-.05-.2-.08s-.15-.05-.23-.07c-.08-.02-.16-.04-.23-.05-.08-.01-.15-.02-.22-.02-.41,0-.71.14-.9.42-.19.28-.28.71-.28,1.3s.1,1.01.29,1.28.48.4.87.4c.21,0,.41-.03.58-.08.17-.05.33-.11.47-.18v.67c-.14.08-.29.14-.46.18-.16.04-.36.06-.59.06Z" fill="#72e064"/><path d="M53.08,45.76h-.72v-4.56h.72v4.56Z" fill="#72e064"/><path d="M54.22,43.02c0-.5.03-.95.1-1.33s.17-.72.3-1c.14-.28.31-.51.52-.68.21-.17.47-.3.76-.37.33-.07.65-.15.97-.21.32-.07.61-.13.88-.18l.13.66c-.13.02-.28.05-.44.08-.16.03-.32.06-.49.1-.16.03-.32.07-.48.1-.15.03-.29.06-.4.09-.16.04-.31.1-.44.2-.13.09-.24.21-.34.37s-.17.35-.22.58c-.05.23-.09.5-.1.81h.05c.05-.08.11-.16.19-.25.08-.08.18-.16.29-.23.11-.07.24-.12.38-.17.14-.04.29-.07.46-.07.26,0,.49.05.69.15.2.1.36.24.5.42.13.18.23.4.3.65.07.25.1.52.1.82,0,.38-.05.71-.14,1-.09.28-.22.52-.38.71-.16.19-.36.33-.59.43-.23.1-.48.14-.75.14s-.54-.06-.76-.18-.42-.3-.58-.54c-.16-.24-.29-.53-.37-.88-.09-.35-.13-.75-.13-1.21ZM56.12,45.22c.16,0,.3-.03.43-.08.13-.05.24-.14.33-.26.09-.12.16-.28.21-.48.05-.2.07-.44.07-.73,0-.23-.02-.44-.05-.63s-.09-.34-.17-.48c-.08-.13-.17-.23-.29-.3-.12-.07-.26-.11-.43-.11-.16,0-.31.03-.45.1s-.26.15-.37.24c-.11.09-.2.19-.28.29-.08.1-.13.19-.16.26,0,.28.02.54.05.81.03.26.09.49.18.7.08.2.2.37.35.49s.34.18.58.18Z" fill="#72e064"/><path d="M64.68,43.47c0,.38-.04.72-.13,1.01s-.21.54-.38.74c-.16.2-.36.35-.6.46-.23.1-.5.16-.79.16-.27,0-.52-.05-.75-.16-.23-.11-.43-.26-.59-.46-.17-.2-.3-.45-.39-.74-.09-.29-.14-.63-.14-1.01s.04-.71.13-1c.09-.29.21-.54.38-.74.16-.2.36-.35.6-.46s.5-.16.79-.16c.27,0,.52.05.75.16.23.1.43.26.59.46.17.2.3.45.39.74.09.29.14.63.14,1ZM61.65,43.47c0,.58.09,1.01.27,1.31.18.29.47.44.88.44s.7-.15.87-.44c.18-.29.27-.73.27-1.31s-.09-1.01-.27-1.3c-.18-.29-.47-.43-.88-.43s-.7.14-.87.43-.27.72-.27,1.3Z" fill="#72e064"/><path d="M66.53,45.76h-.72v-4.56h3.42v4.56h-.72v-3.92h-1.99v3.92Z" fill="#72e064"/><path d="M73.64,45.76h-.72v-3.92h-1.02c-.05.72-.12,1.33-.21,1.83-.08.5-.19.92-.31,1.23-.12.32-.27.55-.44.7-.17.15-.37.22-.6.22-.07,0-.14,0-.21-.01-.06,0-.12-.02-.16-.04v-.54c.06.02.13.02.2.02.14,0,.28-.08.39-.24.12-.16.22-.41.31-.74.09-.33.17-.75.24-1.26.07-.51.12-1.11.17-1.8h2.35v4.56Z" fill="#72e064"/></g><g isolation="isolate"><path d="M77.46,45.76l-.15-.63h-.03c-.09.12-.17.23-.26.32-.09.09-.18.16-.28.22-.1.06-.22.1-.34.13-.13.03-.27.04-.44.04-.18,0-.35-.03-.5-.08s-.29-.14-.4-.25c-.11-.11-.2-.25-.26-.42-.06-.17-.09-.37-.09-.6,0-.45.15-.8.46-1.05.3-.24.77-.38,1.39-.4l.73-.03v-.29c0-.19-.02-.34-.06-.46-.04-.12-.09-.22-.17-.3s-.16-.13-.27-.16-.23-.05-.36-.05c-.22,0-.42.03-.61.1s-.37.15-.54.24l-.25-.57c.2-.11.41-.2.65-.28.24-.08.49-.12.75-.12s.5.03.7.09c.2.06.36.15.49.27s.22.28.29.47c.06.19.09.42.09.69v3.12h-.52ZM76.14,45.23c.16,0,.31-.03.45-.08.14-.05.25-.13.36-.24.1-.11.18-.24.23-.4s.08-.35.08-.57v-.41l-.56.03c-.24.01-.43.04-.59.08-.16.04-.29.11-.38.19-.1.08-.17.17-.21.29s-.06.24-.06.38c0,.25.06.44.19.56.13.12.3.18.5.18Z" fill="#72e064"/></g><g isolation="isolate"><path d="M81.85,41.84h-1.26v3.92h-.72v-3.92h-1.26v-.64h3.24v.64Z" fill="#72e064"/><path d="M83.38,41.2v2.77l-.05,1.05,2.03-3.82h.92v4.56h-.68v-2.69l.04-1.12-2.03,3.81h-.92v-4.56h.68Z" fill="#72e064"/></g></g><g id="LeoCard_logo"><rect x="3.81" y="64.35" width="18.45" height="11.16" rx="1" ry="1" fill="url(#radial-gradient-2)" stroke="#111630" stroke-miterlimit="10" stroke-width=".5"/><path d="M6.07,68.36h.54s-.05,2.26-.06,2.42.06.28.17.29.62.01.62.01l-.08.48s-.57.01-.83-.02-.42-.31-.42-.55.06-2.63.06-2.63Z" fill="#fff"/><path d="M8.02,70.87c0,.07.05.17.1.17.06,0,1.07-.01,1.07-.01h0l-.07.51s-.94.02-1.2,0c-.26-.02-.43-.24-.43-.57s-.02-.85.01-1.22c.03-.37.31-.65.5-.65s.65,0,1.01,0c.4,0,.44.3.44.72s0,.71,0,.71h-1.42s-.02-.46-.02-.46h.91s0-.32,0-.35-.07-.09-.12-.09-.61,0-.63,0c-.07,0-.12.05-.12.12,0,.04-.01.8-.01,1.11Z" fill="#fff"/><path d="M10.99,69.1h-.46c-.43,0-.78.35-.78.78v.9c0,.43.35.78.78.78h.46c.43,0,.78-.35.78-.78v-.9c0-.43-.35-.78-.78-.78ZM11.26,70.76c0,.18-.14.32-.32.32h-.37c-.18,0-.32-.14-.32-.32v-.87c0-.18.14-.32.32-.32h.37c.18,0,.32.14.32.32v.87Z" fill="#fff"/><path d="M12.88,71.02c-.15,0-.31-.12-.31-.33v-1.53c0-.16.15-.34.3-.34h.9s.09-.59.09-.59c0,0-.02,0-.03,0h-1.09c-.42,0-.76.36-.76.81v1.75c0,.45.34.81.76.81h1.07v-.59" fill="#fff"/><path d="M17.11,71.62v-1.83c0-.08.06-.14.14-.14h.76l.07-.51s-.01,0-.02,0h-.85c-.33,0-.6.29-.6.64v1.38s0,.44,0,.47" fill="#fff"/><path d="M14.62,69.58l-.09-.55s.91.01,1.18.02.49.28.49.53l-.05,2.04h-1.52c-.22,0-.38-.3-.38-.72s.1-.81.34-.81,1.08,0,1.08,0l-.02.48s-.67,0-.73,0-.2,0-.2.26.16.27.2.27.71,0,.71,0c0,0,.02-1.25.01-1.37,0-.07-.1-.17-.18-.17s-.83,0-.83,0Z" fill="#fff"/><path d="M18.56,71.62c-.27,0-.38-.27-.38-.58v-1.45c0-.25.27-.52.6-.52h.85s-.01.57-.01.57c0,0-.58,0-.68,0s-.23.12-.23.29,0,.76,0,.88.09.28.19.29.62,0,.62,0v-2.75s.55,0,.55,0v3.28" fill="#fff"/></g><g id="Mastercard_logo"><rect x="28.47" y="64.35" width="18.46" height="11.16"/><path d="M33.18,74.61v-.72c0-.27-.17-.45-.45-.46-.15,0-.3.04-.4.2-.08-.13-.2-.2-.38-.2-.12,0-.24.04-.34.17v-.14h-.25v1.15h.25v-.64c0-.2.11-.3.28-.3s.25.11.25.3v.64h.25v-.64c0-.2.12-.3.28-.3s.25.11.25.3v.64h.25ZM36.91,73.46h-.41v-.35h-.25v.35h-.23v.23h.23v.52c0,.27.1.42.4.42.11,0,.23-.03.31-.09l-.07-.21c-.07.04-.16.06-.22.06-.12,0-.17-.08-.17-.19v-.52h.41v-.23ZM39.04,73.43c-.14,0-.24.07-.3.17v-.14h-.25v1.15h.25v-.64c0-.19.08-.3.24-.3.05,0,.1,0,.16.03l.08-.24c-.06-.02-.13-.03-.18-.03h0ZM35.82,73.55c-.12-.08-.29-.12-.47-.12-.29,0-.48.14-.48.37,0,.19.14.3.4.34l.12.02c.14.02.2.06.2.12,0,.09-.09.14-.26.14s-.3-.06-.38-.12l-.12.19c.14.1.31.15.5.15.33,0,.52-.16.52-.37,0-.2-.15-.31-.4-.34l-.12-.02c-.11-.01-.19-.04-.19-.11,0-.08.08-.13.22-.13.15,0,.29.06.36.1l.11-.2ZM42.51,73.43c-.14,0-.24.07-.3.17v-.14h-.25v1.15h.25v-.64c0-.19.08-.3.24-.3.05,0,.1,0,.16.03l.08-.24c-.06-.02-.13-.03-.18-.03h0ZM39.29,74.04c0,.35.24.6.61.6.17,0,.29-.04.41-.14l-.12-.2c-.09.07-.19.1-.3.1-.2,0-.35-.15-.35-.37s.15-.36.35-.37c.11,0,.21.04.3.1l.12-.2c-.12-.1-.24-.14-.41-.14-.37,0-.61.25-.61.6h0ZM41.63,74.04v-.57h-.25v.14c-.08-.1-.2-.17-.36-.17-.32,0-.57.25-.57.6s.25.6.57.6c.16,0,.28-.06.36-.17v.14h.25v-.57ZM40.7,74.04c0-.2.13-.37.35-.37s.35.16.35.37-.14.37-.35.37-.35-.17-.35-.37h0ZM37.69,73.43c-.34,0-.57.24-.57.6s.24.6.59.6c.17,0,.33-.04.47-.16l-.12-.18c-.1.08-.22.12-.33.12-.16,0-.31-.07-.34-.28h.85s0-.06,0-.1c0-.36-.22-.6-.54-.6h0ZM37.68,73.66c.16,0,.26.1.29.28h-.6c.03-.17.13-.28.3-.28h0ZM43.94,74.04v-1.03h-.25v.6c-.08-.1-.2-.17-.36-.17-.32,0-.57.25-.57.6s.25.6.57.6c.16,0,.28-.06.36-.17v.14h.25v-.57ZM44.24,74.5s.02,0,.03,0c0,0,.02,0,.02.02,0,0,.01.01.02.02,0,0,0,.02,0,.03s0,.02,0,.03c0,0,0,.02-.02.02,0,0-.01.01-.02.02,0,0-.02,0-.03,0s-.02,0-.03,0c0,0-.02,0-.02-.02,0,0-.01-.01-.02-.02,0,0,0-.02,0-.03s0-.02,0-.03c0,0,0-.02.02-.02,0,0,.01-.01.02-.02s.02,0,.03,0ZM44.24,74.63s.02,0,.02,0c0,0,.01,0,.02-.01,0,0,0-.01.01-.02,0,0,0-.01,0-.02s0-.02,0-.02c0,0,0-.01-.01-.02,0,0-.01,0-.02-.01,0,0-.01,0-.02,0s-.02,0-.02,0c0,0-.01,0-.02.01,0,0,0,.01-.01.02,0,0,0,.01,0,.02s0,.02,0,.02c0,0,0,.01.01.02,0,0,.01,0,.02.01,0,0,.01,0,.02,0ZM44.24,74.54s.02,0,.02,0c0,0,0,0,0,.02,0,0,0,.01,0,.01,0,0,0,0-.02,0l.02.03h-.02l-.02-.03h0v.03h-.01v-.07h.03ZM44.22,74.55v.02h.02s0,0,0,0c0,0,0,0,0,0s0,0,0,0c0,0,0,0,0,0h-.02ZM43.01,74.04c0-.2.13-.37.35-.37s.35.16.35.37-.14.37-.35.37-.35-.17-.35-.37h0ZM34.59,74.04v-.57h-.25v.14c-.08-.1-.2-.17-.36-.17-.32,0-.57.25-.57.6s.25.6.57.6c.16,0,.28-.06.36-.17v.14h.25v-.57ZM33.66,74.04c0-.2.13-.37.35-.37s.35.16.35.37-.14.37-.35.37-.35-.17-.35-.37Z" fill="#fff"/><rect x="36" y="66" width="3.12" height="5.61" fill="#f16122"/><path d="M36.19,68.8c0-1.14.53-2.15,1.36-2.8-.61-.48-1.37-.76-2.2-.76-1.97,0-3.57,1.6-3.57,3.57s1.6,3.57,3.57,3.57c.83,0,1.6-.28,2.2-.76-.83-.65-1.36-1.67-1.36-2.8Z" fill="#e91d25"/><path d="M43.33,68.8c0,1.97-1.6,3.57-3.57,3.57-.83,0-1.6-.28-2.2-.76.83-.65,1.36-1.67,1.36-2.8s-.53-2.15-1.36-2.8c.61-.48,1.37-.76,2.2-.76,1.97,0,3.57,1.6,3.57,3.57Z" fill="#f79e1d"/><path d="M42.99,71.01v-.11h.05v-.02h-.12v.02h.05v.11h.03ZM43.22,71.01v-.14h-.04l-.04.1-.04-.1h-.04v.14h.03v-.1l.04.09h.03l.04-.09v.1h.03Z" fill="#f79e1d"/></g><g id="Visa_logo"><path d="M70.21,75.96h-17.47v-11.56h17.47v11.56Z" fill="#fff" fill-rule="evenodd"/><path d="M59.06,72.06l1.13-3.74h1.01l-1.13,3.74h-1.01ZM58.6,68.32l-.91,1.59c-.23.42-.37.63-.43.89h-.01c.02-.33-.03-.74-.03-.97l-.1-1.5h-1.7l-.02.1c.44,0,.7.22.77.67l.33,2.97h1.05l2.12-3.74h-1.06ZM66.47,72.06l-.03-.56h-1.26s-.26.56-.26.56h-1.1l1.99-3.73h1.35l.34,3.73h-1.03,0ZM66.36,69.85c-.01-.28-.02-.65,0-.88h-.01c-.06.19-.33.74-.44,1.02l-.38.82h.89l-.05-.96ZM62.26,72.17c-.71,0-1.19-.23-1.53-.43l.48-.74c.3.17.54.37,1.09.37.18,0,.35-.05.44-.21.14-.24-.03-.37-.43-.6l-.2-.13c-.59-.4-.84-.78-.56-1.44.18-.42.64-.75,1.41-.75.53,0,1.03.23,1.32.45l-.55.65c-.28-.23-.52-.34-.78-.34-.21,0-.38.08-.43.19-.11.21.03.35.34.54l.23.15c.71.45.88.92.7,1.36-.31.76-.91.93-1.54.93h0ZM67.81,68.83h-.04v-.27h.1c.06,0,.1.02.1.08,0,.05-.03.07-.07.07l.07.12h-.05l-.07-.11h-.04v.11h0ZM67.85,68.67s.06,0,.06-.04c0-.03-.03-.04-.06-.04h-.05v.08h.05ZM67.85,68.93c-.14,0-.24-.1-.24-.24,0-.14.11-.24.24-.24s.24.1.24.24-.11.24-.24.24ZM67.85,68.49c-.1,0-.19.08-.19.2,0,.11.07.2.19.2.1,0,.18-.08.18-.2s-.08-.2-.18-.2Z" fill="#1d5b98" fill-rule="evenodd"/><path d="M69.78,73.22h-16.58v2.22h16.58v-2.22h0Z" fill="#e6a738" fill-rule="evenodd"/><path d="M69.75,64.96h-16.58v2.22h16.58v-2.22ZM69.37,75.28h-.04v-.27h.1c.06,0,.1.02.1.08,0,.05-.03.07-.07.07l.07.12h-.05l-.07-.11h-.04v.11h0ZM69.42,75.13s.06,0,.06-.04c0-.03-.03-.04-.06-.04h-.05v.08h.05ZM69.42,75.38c-.14,0-.24-.1-.24-.24,0-.14.11-.24.24-.24s.24.1.24.24-.11.24-.24.24ZM69.42,74.94c-.1,0-.19.08-.19.2,0,.11.07.2.19.2.1,0,.18-.08.18-.2s-.08-.2-.18-.2Z" fill="#1d5b98" fill-rule="evenodd"/></g><g id="QR_icon"><polygon points="85.9 70.7 85.9 71.76 86.94 71.76 86.94 70.7 88 70.7 88 73.86 84.84 73.86 84.84 72.8 83.81 72.8 83.81 75.96 82.74 75.96 82.74 70.7 85.9 70.7" fill="#fff"/><rect x="86.94" y="74.9" width="1.06" height="1.06" fill="#fff"/><rect x="84.84" y="74.9" width="1.06" height="1.06" fill="#fff"/><path d="M81.68,70.7v5.26h-5.26v-5.26h5.26ZM77.48,71.76v3.13h3.16v-3.13h-3.16Z" fill="#fff"/><rect x="78.52" y="72.8" width="1.06" height="1.06" fill="#fff"/><path d="M88,64.4v5.26h-5.26v-5.26h5.26ZM83.81,65.44v3.16h3.13v-3.16h-3.13Z" fill="#fff"/><rect x="84.84" y="66.5" width="1.06" height="1.03" fill="#fff"/><path d="M81.68,64.4v5.26h-5.26v-5.26h5.26ZM77.48,65.44v3.16h3.16v-3.16h-3.16Z" fill="#fff"/><rect x="78.52" y="66.5" width="1.06" height="1.03" fill="#fff"/></g></g><g id="Validator_place_card_artwork"><path d="M57.63,95.42l-.47,11.88s-2.76,4.71-4.98,6.11-5.37,1.29-5.57,1.29-3.47.27-5.61-1.36,15.42-20.33,15.42-20.33c0,0,1.21,2.41,1.21,2.41Z" fill="#fff" stroke="#000" stroke-miterlimit="10" stroke-width=".25"/><path d="M56.42,96.11s-.16,11.02-.43,11.6-1.84,2.58-2.46,2.63.98-15.56.98-15.56l1.91.74v.58h0Z" fill="#fff" stroke="#000" stroke-miterlimit="10" stroke-width=".25"/><path d="M49.49,89.84s.39-.9.97-1.13,4.44,2.1,4.44,2.1c0,0-.32,1.67-.63,1.75s-4.79-2.73-4.79-2.73h.01Z" fill="#fff" stroke="#000" stroke-miterlimit="10" stroke-width=".25"/><path d="M47.86,89.99s1.09-1.01,1.75-.86,4.52,2.26,4.52,2.26c0,0,1.67,3.43,1.56,4.56s-2.18,14.64-2.18,14.64c0,0-.58,1.75-2.02,1.91s-3.62-22.51-3.62-22.51h-.01Z" fill="#fff" stroke="#000" stroke-miterlimit="10" stroke-width=".25"/><path d="M38.63,102.9s.23-5.05,1.32-6.96c0,3.04-.31,7.67-.31,7.67l-1.01-.72h0Z" fill="#fff" stroke="#000" stroke-miterlimit="10" stroke-width=".25"/><path d="M39.76,103.93l.55-12.54s1.77-1.56,3.11-1.76,2.99-.53,4.62-.11c1.88.49,4.05,1.45,6.13,3.38.74,1.75.39,3.04.39,3.04l-2.45,14.84s-1.13,2.96-3.12,3.15-3.3.25-4.91,0-3.04-1.17-3.19-1.4-1.13-8.61-1.13-8.61h0Z" fill="#fff" stroke="#000" stroke-miterlimit="10" stroke-width=".25"/><path d="M51.13,97.32s.16-1.01.58-1.21v-1.79s-2.49-2.61-4.79-2.96-4.24-.36-5.41,1.28c0,2.73-1.41,16.32-1.41,16.32,0,0,2.06,2.61,4.21,2.92s4.91.31,5.84-1.21c.15-1.17.19-1.48.19-1.48,0,0-.51-.04-.55-.74s1.33-11.14,1.33-11.14h0Z" stroke="#000" stroke-miterlimit="10" stroke-width=".25"/><ellipse cx="44.96" cy="108.49" rx="2.45" ry="4.01" transform="translate(-70.18 131.6) rotate(-78.84)" fill="url(#linear-gradient)" stroke="#000" stroke-miterlimit="10" stroke-width=".25"/><rect x="30.42" y="105.35" width="12.85" height="9.43" rx="1.09" ry="1.09" transform="translate(-68.37 61.05) rotate(-46.51)" fill="#007fff" stroke="#fff" stroke-miterlimit="10" stroke-width=".25"/><polyline points="23.27 111.64 27.17 117.5 24.59 119.34 20.73 113.32" fill="#fff"/><path d="M26.9,116.07l-2.96-4.43,5.47-5.17,5.24-1.05-5.18,4.98.12.21s4.81-3.34,5.3-3.39c.08,0,.72.14.95.47s.32.97.21,1.15c-.15.25-5.28,4.15-5.28,4.15,0,0,.68.55.7.93s-.7,1.05-1.23,1.46-2.43.72-3.35.68h.01Z" fill="#fff"/><circle cx="38.82" cy="108.16" r="1.48" fill="#fff"/><rect x="53.98" y="91.64" width="4.98" height="4.41" rx="1.18" ry="1.18" fill="url(#linear-gradient-2)" stroke="#000" stroke-miterlimit="10" stroke-width=".25"/><circle cx="53.98" cy="92.18" r="1.87" fill="url(#radial-gradient-3)" stroke="#000" stroke-miterlimit="10" stroke-width=".25"/></g><polygon id="Payment_dir_arrow" points="37.17 131.76 52.68 131.76 44.93 139.28 37.17 131.76" fill="#72e064"/></g></svg>