<?xml version="1.0" encoding="UTF-8"?>
<svg id="Layer_1" data-name="Layer 1" xmlns="http://www.w3.org/2000/svg" xmlns:xlink="http://www.w3.org/1999/xlink" viewBox="0 0 90 150">
  <defs>
    <linearGradient id="linear-gradient" x1="45" y1="93.5" x2="45" y2="118.5" gradientUnits="userSpaceOnUse">
      <stop offset="0" stop-color="#e8b421"/>
      <stop offset=".37" stop-color="#e7b323"/>
      <stop offset=".57" stop-color="#e3af2b"/>
      <stop offset=".73" stop-color="#deaa39"/>
      <stop offset=".87" stop-color="#d6a24c"/>
      <stop offset="1" stop-color="#cc9965"/>
      <stop offset="1" stop-color="#c96"/>
    </linearGradient>
    <linearGradient id="linear-gradient-2" x1="45" y1="63.5" x2="45" y2="88.5" gradientUnits="userSpaceOnUse">
      <stop offset="0" stop-color="#e8b421"/>
      <stop offset=".41" stop-color="#e6b223"/>
      <stop offset=".63" stop-color="#e0ab2b"/>
      <stop offset=".81" stop-color="#d69f39"/>
      <stop offset=".97" stop-color="#c88f4c"/>
      <stop offset="1" stop-color="#c58c51"/>
    </linearGradient>
    <linearGradient id="linear-gradient-3" x1="45" y1="33.5" x2="45" y2="58.5" xlink:href="#linear-gradient-2"/>
  </defs>
  <g id="Additional_tickets_page" data-name="Additional tickets page">
    <rect id="Bg" x="0" width="90" height="150" fill="#101010"/>
    <path id="Buttonette" d="M89.49,21.63s-3.06-2.48-3.06-9.24,3.06-8.88,3.06-8.88v18.13Z" fill="#dc0000" stroke="#dc0000" stroke-miterlimit="10"/>
    <text transform="translate(52.45 15.67) scale(.87 1)" fill="#dc0000" font-family="DroidSans, &apos;Droid Sans&apos;" font-size="7"><tspan x="0" y="0">Скасув</tspan><tspan x="22" y="0" letter-spacing="-.02em">а</tspan><tspan x="25.58" y="0" letter-spacing="0em">ти</tspan></text>
    <text transform="translate(5.73 11.05) scale(.87 1)" fill="#fff" font-family="DroidSans, &apos;Droid Sans&apos;" font-size="7"><tspan x="0" y="0">До</tspan><tspan x="8.59" y="0" letter-spacing="0em">д</tspan><tspan x="12.49" y="0" letter-spacing="-.02em">а</tspan><tspan x="16.06" y="0">ти</tspan><tspan x="0" y="8.4">квитки</tspan></text>
    <g id="Luggage_ticket_button" data-name="Luggage ticket button">
      <rect x=".77" y="93.5" width="88.45" height="25" rx=".99" ry=".99" fill="url(#linear-gradient)" stroke="#fff" stroke-miterlimit="10" stroke-width=".75"/>
      <text transform="translate(4.9 109.34) scale(.87 1)" fill="#231f20" font-family="DroidSans, &apos;Droid Sans&apos;" font-size="8"><tspan x="0" y="0">Багаж</tspan></text>
      <text transform="translate(68.64 111.39) scale(.87 1)" fill="#231f20" font-family="DroidSans, &apos;Droid Sans&apos;" font-size="15" stroke="#231f20" stroke-miterlimit="10" stroke-width=".75"><tspan x="0" y="0">0</tspan></text>
      <path id="Buttonette-2" data-name="Buttonette" d="M88.95,115.6s-3.06-2.48-3.06-9.24,3.06-8.88,3.06-8.88v18.13Z" fill="#e2e6f4" stroke="#fff" stroke-miterlimit="10"/>
    </g>
    <g id="More_tickets_add_button" data-name="More tickets add button">
      <rect x=".78" y="63.5" width="88.45" height="25" rx=".99" ry=".99" fill="url(#linear-gradient-2)" stroke="#fff" stroke-miterlimit="10" stroke-width=".75"/>
      <text transform="translate(5.05 79.34) scale(.87 1)" fill="#231f20" font-family="DroidSans, &apos;Droid Sans&apos;" font-size="8"><tspan x="0" y="0">Поп</tspan><tspan x="14.9" y="0" letter-spacing="0em">у</tspan><tspan x="18.89" y="0">тники</tspan></text>
      <text transform="translate(69.25 81.39) scale(.87 1)" fill="#231f20" font-family="DroidSans, &apos;Droid Sans&apos;" font-size="15" stroke="#231f20" stroke-miterlimit="10" stroke-width=".75"><tspan x="0" y="0">0</tspan></text>
      <path id="Buttonette-3" data-name="Buttonette" d="M88.95,85.53s-3.06-2.48-3.06-9.24,3.06-8.88,3.06-8.88v18.13Z" fill="#e2e6f4" stroke="#fff" stroke-miterlimit="10"/>
      <path d="M84.74,75.96h-2.5v-2.5h-1v2.5h-2.5v1h2.5v2.5h1v-2.5h2.5v-1Z"/>
    </g>
    <g id="Ticket_registry_button" data-name="Ticket registry button">
      <rect x=".77" y="33.5" width="88.45" height="25" rx=".99" ry=".99" fill="url(#linear-gradient-3)" stroke="#fff" stroke-miterlimit="10" stroke-width=".75"/>
      <text transform="translate(5.26 43.54) scale(.87 1)" fill="#231f20" font-family="DroidSans, &apos;Droid Sans&apos;" font-size="8"><tspan x="0" y="0">Зареєструй</tspan><tspan x="42.02" y="0" letter-spacing="0em">т</tspan><tspan x="45.46" y="0">е</tspan><tspan x="0" y="9.6">мою поїздку</tspan></text>
      <path id="Buttonette-4" data-name="Buttonette" d="M88.95,55.53s-3.06-2.48-3.06-9.24,3.06-8.88,3.06-8.88v18.13Z" fill="#e2e6f4" stroke="#fff" stroke-miterlimit="10"/>
      <path d="M84.74,106.02h-2.5v-2.5h-1v2.5h-2.5v1h2.5v2.5h1v-2.5h2.5v-1Z"/>
      <g>
        <path d="M80.93,42.41s-.08.07-.12.11c-.07.08-.15.22-.27.23h-5.08c-.36.04-.61.3-.63.66v5.85c.03.3.26.55.57.58.23.02.48,0,.71,0,1.56.03,3.12,0,4.68.01.25-.02.48-.16.57-.39.07-.18.04-.48.04-.68.02-1.27,0-2.55.01-3.82,0-.04.02-.07.04-.11.05-.08.37-.41.45-.44.02,0,.04-.02.06-.02.05,0,.12.07.11.13v4.81c-.06.63-.58,1.13-1.2,1.18h-5.48c-.64-.06-1.15-.57-1.21-1.21v-5.98c.05-.64.56-1.17,1.2-1.22h5.53c.13.11.12.2.02.32Z"/>
        <path d="M82.01,43.68c-1.09,1.2-2.21,2.44-3.16,3.76-.32.44-.65,1.22-1.3.69-.18-.15-.38-.36-.55-.52-.35-.33-.68-.68-1.03-1.02-.43-.57.27-1.32.87-.89.33.25.62.59.93.87.01.01.08.07.08.06,0-.01,0-.02.01-.03.86-1.18,1.84-2.28,2.84-3.34.28-.3.67-.76,1-.99.58-.39,1.25.36.77.91-.14.17-.32.34-.47.5Z"/>
      </g>
    </g>
  </g>
</svg>